<svg width="200" height="81" viewBox="0 0 182 61" fill="none" xmlns="http://www.w3.org/2000/svg">
<g clip-path="url(#clip0_68_1173)">
<path d="M135.902 32.6502C135.91 33.0874 136.001 33.1052 136.176 32.7036C138.343 27.7359 139.751 22.5624 141.062 17.3888C141.447 15.8752 142.346 12.8748 144.401 13.5649C146.298 14.1977 146.414 20.4655 146.437 22.1087C146.509 27.6343 146.536 33.0124 146.518 38.2432C146.518 38.2757 146.526 38.3076 146.543 38.3357C146.56 38.3637 146.583 38.3869 146.612 38.4028C146.641 38.4187 146.673 38.4268 146.706 38.4262C146.739 38.4257 146.771 38.4164 146.799 38.3995L148.002 37.6789C148.052 37.6485 148.108 37.6304 148.166 37.6262C148.225 37.6219 148.283 37.6315 148.337 37.6542C148.391 37.677 148.439 37.7122 148.476 37.7569C148.514 37.8017 148.541 37.8547 148.554 37.9115C148.985 39.7453 147.208 42.029 145.122 41.2474C144.51 41.0187 144.204 40.5802 144.204 39.9321C144.204 32.4622 144.212 25.6645 144.227 19.5391C144.23 18.3953 144.088 17.2287 143.803 16.0392C143.731 15.7342 143.644 15.7304 143.541 16.0277C143.232 16.9313 142.882 17.8959 142.677 18.8071C141.533 23.9387 139.978 28.9445 138.012 33.8245C137.314 35.5592 136.805 37.1185 136.269 38.7884C136.186 39.0408 136.022 39.2602 135.802 39.4136C134.907 40.0427 133.593 39.5661 133.589 38.4033C133.571 33.9935 133.62 29.8747 133.735 26.047C133.82 23.2918 133.725 20.2622 133.45 16.958C133.427 16.686 133.554 16.3848 133.832 16.0544C133.958 15.907 134.152 16.0379 134.414 16.4471C134.45 16.5053 134.478 16.5681 134.499 16.6339C135.216 18.9723 135.614 21.3894 135.694 23.8853C135.787 26.7243 135.856 29.646 135.902 32.6502Z" fill="white"/>
<path d="M113.596 29.6573C113.714 29.7387 113.776 29.7082 113.781 29.5658L114.116 16.1344C114.118 16.0721 114.137 16.0113 114.17 15.9583C114.203 15.9053 114.25 15.862 114.305 15.8329C114.36 15.8038 114.422 15.7898 114.485 15.7926C114.547 15.7953 114.608 15.8146 114.66 15.8485C115.593 16.447 115.62 18.5553 115.659 19.5275C115.795 22.8647 115.818 26.6836 115.728 30.9841C115.723 31.1696 115.813 31.2446 115.998 31.209L116.16 31.1785C116.246 31.1629 116.334 31.1753 116.412 31.2138C116.49 31.2523 116.553 31.3149 116.592 31.392C117.309 32.8026 116.565 34.0989 115.562 35.1473C115.467 35.249 115.408 35.3685 115.385 35.5057C115.304 35.9937 115.373 36.5732 115.08 36.9926C114.567 37.717 113.761 37.5225 113.318 36.8439C113.241 36.727 113.133 36.6825 112.994 36.7105C109.019 37.4958 104.958 36.5046 105.036 31.6475C105.055 30.4122 104.935 28.1628 106.705 27.9913C109.327 27.7346 111.624 28.2899 113.596 29.6573ZM107.523 33.4736C108.498 35.0787 110.881 34.8614 112.697 34.5106C112.776 34.4962 112.848 34.4588 112.905 34.4031C112.962 34.3474 113.001 34.276 113.017 34.198C113.354 32.5993 112.826 31.4848 111.432 30.8545C110.168 30.2851 108.836 30.036 107.438 30.1072C107.271 30.1148 107.188 30.2025 107.191 30.3703C107.21 31.3425 106.994 32.5968 107.523 33.4736Z" fill="white"/>
<path d="M47.5552 35.5821C48.6323 34.0799 49.9035 32.9654 51.3687 32.2385C52.0011 31.922 52.7376 31.9945 53.3969 32.2156C53.4659 32.2383 53.5281 32.2774 53.5783 32.3294C53.6284 32.3815 53.6649 32.445 53.6846 32.5145C53.7044 32.5839 53.7068 32.6572 53.6916 32.728C53.6764 32.7989 53.6441 32.8651 53.5974 32.9209C53.1193 33.4928 52.5628 33.9846 51.9278 34.3964C50.0346 35.6278 48.4845 37.6637 48.0449 39.7491C47.9215 40.3553 47.4125 40.8128 46.7686 40.7632C45.82 40.6946 45.5116 39.5471 45.5038 38.7884C45.4846 36.6572 45.6234 34.2706 45.2069 32.1927C45.1401 31.8598 45.0218 31.8394 44.8522 32.1317C44.518 32.7087 44.1016 33.1446 43.6029 33.4394C42.6929 33.9808 41.5785 33.5957 41.486 32.4291C41.4833 32.3978 41.4733 32.3675 41.4568 32.3407C41.4402 32.3139 41.4176 32.2912 41.3906 32.2746C41.3637 32.2579 41.3331 32.2477 41.3015 32.2447C41.2699 32.2418 41.238 32.2462 41.2083 32.2576L39.5696 32.8942C39.5017 32.92 39.4435 32.966 39.4028 33.026C39.3621 33.086 39.3409 33.1571 39.3421 33.2297L39.4385 41.1941C39.4462 41.8066 39.1673 42.2374 38.6017 42.4865C38.2675 42.6364 37.8884 42.489 37.4642 42.0442C37.2514 41.8239 37.1326 41.5317 37.1326 41.2284L37.1365 33.9122C37.1365 33.8723 37.1277 33.8328 37.1107 33.7966C37.0937 33.7604 37.0689 33.7283 37.0381 33.7025C37.0072 33.6767 36.9711 33.6579 36.9321 33.6474C36.8932 33.6368 36.8524 33.6348 36.8126 33.6415C35.8769 33.7914 34.8576 33.8715 33.7548 33.8817C30.1637 33.9122 26.7319 33.8715 23.4595 33.7597C23.3704 33.7561 23.2829 33.7346 23.2021 33.6966C23.1213 33.6587 23.0488 33.6049 22.9891 33.5386C22.7166 33.2259 22.6472 32.9667 22.7808 32.7608C23.1124 32.2525 23.6073 31.9983 24.2654 31.9983C28.2087 31.9856 32.3178 31.9716 36.5928 31.9564C36.8961 31.9564 37.0375 31.8064 37.0169 31.5065C36.8139 28.6751 36.0799 26.0851 34.8152 23.7366C34.4296 23.0199 33.9823 22.4518 33.4733 22.0324C29.9991 19.1692 22.0366 33.0391 20.876 35.1779C20.1331 36.5504 19.4802 37.975 18.9172 39.4517C18.3427 40.9653 18.3349 42.5284 18.092 44.0992C18.0123 44.5999 17.7167 44.868 17.2052 44.9036C17.1692 44.9062 17.1345 44.9062 17.101 44.9036C16.8443 44.8814 16.6036 44.759 16.4231 44.5587C16.2425 44.3585 16.1341 44.0939 16.1178 43.8132C15.979 41.4292 16.5021 39.0171 17.6871 36.5771C19.3066 33.245 21.2603 29.9688 23.5482 26.7485C24.7743 25.0202 26.1214 23.4024 27.5892 21.8952C30.003 19.417 33.67 18.258 36.0144 21.7198C37.7316 24.2538 38.765 27.3191 39.1146 30.9155C39.1428 31.2307 39.3048 31.3286 39.6004 31.2091C40.2456 30.9473 40.8883 30.7287 41.5284 30.5534C42.3176 30.3373 42.7623 30.6487 42.8625 31.4874C42.9165 31.9195 43.0656 31.9538 43.3098 31.5904C43.6234 31.1227 43.9563 30.6563 44.3085 30.1912C44.9602 29.341 46.3791 29.3753 46.7493 30.5C47.2506 32.0326 47.4704 33.7114 47.4087 35.5363C47.401 35.7168 47.4498 35.732 47.5552 35.5821Z" fill="white"/>
<path d="M127.469 25.0061C126.478 24.9832 125.437 26.0164 124.635 25.2463C124.549 25.1632 124.481 25.0634 124.435 24.9532C124.39 24.843 124.368 24.7248 124.37 24.6057C124.373 24.4867 124.4 24.3694 124.45 24.2612C124.5 24.153 124.573 24.0562 124.662 23.9767C125.484 23.2562 126.852 24.2855 127.519 24.8727C127.625 24.9642 127.608 25.0086 127.469 25.0061Z" fill="white"/>
<path d="M92.2839 31.8116C93.4368 30.7212 94.6476 29.6156 96.244 29.4478C98.6886 29.1924 99.2477 33.3747 99.456 34.9607C99.4817 35.1513 99.5871 35.2886 99.7721 35.3724C99.8304 35.3993 99.8794 35.4426 99.913 35.4968C99.9466 35.5511 99.9633 35.6139 99.9611 35.6774C99.9379 36.6191 99.749 38.0755 98.3377 37.5646C97.2118 37.1567 97.2079 34.6557 97.1385 33.6835C97.0871 32.9795 96.8943 32.2945 96.5602 31.6286C96.533 31.5754 96.4954 31.5282 96.4496 31.4898C96.4039 31.4513 96.3508 31.4225 96.2938 31.405C96.2368 31.3875 96.177 31.3818 96.1181 31.3881C96.0591 31.3944 96.0022 31.4127 95.9509 31.4418C95.0769 31.9374 94.2633 32.5741 93.5101 33.3518C92.1245 34.7828 90.7531 36.2188 89.3958 37.6599C88.1504 38.9867 85.2391 39.8407 85.162 37.008C85.0926 34.4968 85.2893 32.3136 85.752 30.4581C86.4113 27.7894 87.7455 25.6429 91.0076 26.5465C93.0975 27.1298 92.4382 30.2484 92.0988 31.7086C92.0423 31.945 92.104 31.9793 92.2839 31.8116ZM89.6272 33.8208C89.2724 33.7648 89.23 33.6187 89.4999 33.3823C90.784 32.2538 90.703 30.2751 90.5912 28.6853C90.5844 28.5932 90.5484 28.5055 90.4882 28.4344C90.4281 28.3633 90.3468 28.3124 90.2557 28.2888C88.4203 27.8161 87.7995 29.9511 87.5257 31.3159C87.171 33.0926 87.0219 34.8933 87.0784 36.7183C87.0803 36.7568 87.0934 36.7939 87.1163 36.8251C87.1392 36.8563 87.1707 36.8803 87.2071 36.894C87.2436 36.9078 87.2832 36.9107 87.3213 36.9025C87.3594 36.8943 87.3943 36.8754 87.4216 36.8479L90.0243 34.1791C90.194 34.0063 90.1593 33.9008 89.9202 33.8627L89.6272 33.8208Z" fill="white"/>
<path d="M160.765 27.2898C161.648 26.7904 162.759 26.6646 163.742 26.8476C167.151 27.4919 166.515 31.0604 166.291 33.489C166.033 36.3407 165.011 40.2867 162.855 42.3721C161.656 43.5349 160.014 43.5845 158.394 43.4587C155.009 43.1918 152.645 40.9195 152.487 37.5188C152.343 34.3824 153.213 31.6691 155.097 29.3791C156.246 27.9799 157.638 26.6417 159.562 26.6646C159.922 26.6697 160.178 26.8323 160.33 27.1526C160.425 27.3534 160.57 27.3991 160.765 27.2898ZM156.883 35.0216C156.7 35.1385 156.601 35.0902 156.586 34.8767C156.431 32.9667 157.596 30.7249 158.583 29.3791C159.336 28.3523 159.227 28.2544 158.255 29.0855C155.726 31.2536 154.555 34.0634 154.742 37.515C154.904 40.4239 157.588 41.6172 160.214 41.2398C160.888 41.1432 161.412 40.7836 161.787 40.1608C163.515 37.2989 164.259 33.9808 164.02 30.2064C164.003 29.9553 163.888 29.7207 163.699 29.5526C163.51 29.3845 163.263 29.2962 163.01 29.3067C162.236 29.3372 161.597 29.6587 161.093 30.2712C159.771 31.8839 158.672 33.8664 156.883 35.0216Z" fill="white"/>
<path d="M63.1101 31.3389C64.2514 29.8215 65.3504 28.6663 67.4133 28.8989C68.5662 29.0323 69.268 29.8406 69.6343 30.8699C69.6406 30.8882 69.6517 30.9044 69.6663 30.9172C69.6809 30.9299 69.6987 30.9386 69.7178 30.9425C69.7369 30.9463 69.7566 30.9452 69.7751 30.9391C69.7937 30.9331 69.8102 30.9224 69.8233 30.9081C71.6278 28.998 74.2113 27.5187 76.8372 27.4311C78.5454 27.3777 79.4747 27.9915 79.733 29.7033C79.9837 31.377 80.5273 36.7641 79.1778 38.026C79.1326 38.0682 79.0788 38.1003 79.02 38.1201C78.9611 38.1399 78.8985 38.1469 78.8364 38.1408C78.7744 38.1346 78.7142 38.1154 78.66 38.0845C78.6058 38.0535 78.5589 38.0115 78.5223 37.9612C78.1084 37.3842 77.8989 36.7399 77.8937 36.0282C77.886 34.0572 78.0904 31.8002 77.6045 29.9054C77.5351 29.6385 77.3603 29.5114 77.0801 29.5241C74.755 29.6347 70.4287 31.7392 70.5675 34.7472C70.5957 35.342 70.3245 35.7385 69.7539 35.9367C69.651 35.9723 69.5456 35.9876 69.4377 35.9825C68.7179 35.9596 68.3285 35.5936 68.2693 34.8845C68.2038 34.0839 67.9686 31.8154 67.367 31.2207C67.2227 31.0789 67.0292 30.9966 66.8254 30.9902C66.6216 30.9838 66.4225 31.0539 66.2681 31.1864C64.0008 33.1485 62.9957 35.5326 63.2528 38.3386C63.2691 38.517 63.2357 38.6964 63.1562 38.8577C63.0767 39.0189 62.9541 39.1558 62.8016 39.2536C62.2438 39.6095 61.7464 39.5713 61.3094 39.1392C61.1838 39.0152 61.0991 38.8556 61.0664 38.6817C60.7464 36.9089 61.3017 35.2734 61.2785 33.5539C61.2502 31.5003 61.3621 29.4466 61.614 27.3929C61.6233 27.3215 61.6532 27.2543 61.7002 27.1994C61.7472 27.1444 61.8092 27.104 61.8789 27.0831C61.9485 27.0621 62.0228 27.0615 62.0928 27.0813C62.1627 27.1011 62.2255 27.1405 62.2734 27.1947C63.0561 28.0982 62.8363 30.1151 62.8595 31.2588C62.8646 31.5257 62.9481 31.5524 63.1101 31.3389Z" fill="white"/>
<path d="M124.654 30.7935C124.686 30.7448 124.729 30.704 124.779 30.6743C124.829 30.6446 124.885 30.6269 124.944 30.6224C125.002 30.618 125.061 30.627 125.115 30.6487C125.169 30.6705 125.217 30.7044 125.256 30.7477C125.77 31.3145 126.041 31.9868 126.07 32.7645C126.126 34.4624 126.13 36.0941 126.081 37.6598C126.063 38.252 125.757 38.5875 125.163 38.6663C125.081 38.6764 125 38.6714 124.921 38.651C124.414 38.5138 124.157 38.1859 124.149 37.6674C124.124 35.873 124.126 34.1269 124.157 32.429C124.167 31.8317 124.333 31.2865 124.654 30.7935Z" fill="white"/>
</g>
<defs>
<clipPath id="clip0_68_1173">
<rect width="182" height="61" fill="white"/>
</clipPath>
</defs>
</svg>
