<svg width="156" height="31" viewBox="0 0 49 27" fill="none" xmlns="http://www.w3.org/2000/svg">
<path d="M3.74857 1.92369C4.35563 2.07921 4.76806 1.92021 4.98586 1.44671C5.02475 1.3614 5.09056 1.29113 5.17333 1.24653C5.2561 1.20193 5.35134 1.18543 5.44463 1.19951C8.03042 1.60802 10.6857 1.63472 13.4105 1.27959C14.7521 1.1055 16.2083 0.902407 17.7793 0.670296C17.9253 0.649406 18.0388 0.70047 18.1199 0.823489C18.2821 1.07649 18.2392 1.29699 17.9913 1.485C15.9963 2.96819 13.0526 3.18754 10.4598 3.13879C10.2907 3.13647 10.1957 3.21887 10.1748 3.38599L10.0984 4.00573C10.0312 4.55119 9.818 4.61734 9.45886 4.20418C9.13912 3.83513 8.78809 3.66801 8.30499 3.66104C6.81051 3.6448 5.34847 3.66453 3.91887 3.72023C3.85867 3.72298 3.80195 3.74898 3.76097 3.79263C3.72 3.83629 3.69807 3.89407 3.69991 3.9535C3.72077 4.71715 3.6976 5.48195 3.6304 6.24792C3.41029 8.79649 3.0859 11.5226 2.65725 14.4263C2.24367 17.2535 2.12202 19.9413 2.02818 22.838C1.97953 24.2794 0.290419 24.4953 0.123594 23.0469C-0.0015253 21.9723 -0.0316473 20.8674 0.0332292 19.7324C0.186153 16.9796 0.650716 13.3958 1.42692 8.98102C1.64935 7.72763 1.71539 6.40808 1.85441 5.11986C1.90538 4.63011 1.91697 4.1241 1.88916 3.60186C1.83819 2.59217 1.94825 1.52446 2.21934 0.398726C2.24659 0.289696 2.30753 0.192316 2.39323 0.120879C2.47893 0.0494428 2.58487 0.00771334 2.69549 0.00181676C3.63735 -0.0504082 3.49138 1.03587 3.52266 1.64168C3.5256 1.70703 3.54911 1.76967 3.58976 1.82042C3.63042 1.87116 3.68607 1.90736 3.74857 1.92369Z" fill="white"/>
<path d="M47.7489 19.6139C48.1694 20.1675 48.7498 20.5853 48.2876 21.3687C48.2077 21.5055 48.081 21.6087 47.9313 21.6587C47.7816 21.7086 47.6191 21.7021 47.4743 21.6402C46.9298 21.4105 46.4548 21.0217 46.0493 20.4739C45.0507 19.123 44.0995 17.6503 43.1959 16.0557C43.1766 16.0223 43.1493 15.9944 43.1164 15.9744C43.0835 15.9544 43.0462 15.9431 43.0078 15.9413C42.9694 15.9396 42.9311 15.9476 42.8966 15.9645C42.8621 15.9814 42.8323 16.0068 42.8101 16.0382C41.764 17.504 40.7109 18.9524 39.5779 20.3242C39.1261 20.8673 38.7519 21.4662 38.4553 22.1207C38.4302 22.1765 38.3943 22.2266 38.3496 22.2683C38.305 22.3099 38.2525 22.3423 38.1952 22.3633C38.1379 22.3844 38.077 22.3938 38.016 22.391C37.955 22.3882 37.8952 22.3733 37.8401 22.347C37.1242 22.0093 37.4022 20.9613 37.7219 20.4565C39.045 18.3582 40.4259 16.3284 41.8648 14.3671C41.9181 14.2951 41.9239 14.2185 41.8822 14.1373C40.9299 12.3245 39.8594 10.8158 38.6708 9.6111C38.4136 9.34881 38.3893 9.0668 38.5978 8.76506C38.621 8.73024 38.6488 8.70355 38.6812 8.68498C38.8701 8.56973 39.0906 8.51741 39.311 8.53556C39.5315 8.5537 39.7405 8.64136 39.9081 8.78595C41.0735 9.79795 42.0779 11.0038 42.9213 12.4034C42.94 12.4342 42.9661 12.4597 42.9971 12.4778C43.0282 12.4959 43.0633 12.506 43.0992 12.507C43.1352 12.508 43.1708 12.5001 43.2028 12.4838C43.2349 12.4675 43.2624 12.4435 43.2828 12.4138C44.3926 10.8007 45.5129 9.26874 46.6436 7.81804C47.3422 6.92326 49.0139 6.98593 48.6699 8.49349C48.5378 9.06448 48.0026 8.99136 47.7037 9.4022C46.5985 10.9063 45.4724 12.4405 44.3255 14.005C44.2902 14.0528 44.2695 14.1096 44.2658 14.1684C44.2621 14.2271 44.2756 14.2853 44.3046 14.3357C45.3635 16.2251 46.5116 17.9845 47.7489 19.6139Z" fill="white"/>
<path d="M4.72875 15.0877C4.44144 15.0251 4.23754 14.8846 4.11706 14.6665C4.06852 14.5774 4.04378 14.4774 4.04523 14.376C4.04667 14.2745 4.07427 14.1752 4.12533 14.0877C4.17638 14.0001 4.24917 13.9272 4.33663 13.8761C4.42409 13.825 4.52325 13.7974 4.62449 13.796C6.53603 13.7751 8.54951 13.8332 10.665 13.9701C11.4087 14.0189 12.0679 13.9283 12.6425 13.6985C12.7584 13.6544 12.8569 13.6788 12.9379 13.7717C13.3226 14.2243 13.362 14.6804 13.0561 15.14C12.6703 15.7214 12.0621 15.6204 11.4469 15.6413C9.0859 15.7179 6.84651 15.5334 4.72875 15.0877Z" fill="white"/>
<path d="M25.3073 9.49276C25.7314 9.05175 26.2515 8.83357 26.8679 8.83821C29.6379 8.8591 30.4824 10.5825 30.4616 13.0684C30.4291 17.1582 29.3343 20.7316 27.1772 23.7885C26.5898 24.6206 25.4846 25.8183 24.4663 25.9749C23.2742 26.163 21.8561 26.1734 20.8343 25.6268C18.8602 24.5684 17.7179 22.8647 17.4075 20.5157C16.9313 16.9191 17.5361 12.4731 20.7335 10.3841C21.9847 9.56587 23.3749 9.64247 24.8034 9.6947C25.0003 9.70166 25.1683 9.63435 25.3073 9.49276ZM28.0912 12.1493C28.0773 12.1516 28.0704 12.1597 28.0704 12.1736C28.1492 13.2228 28.0901 14.2708 27.8931 15.3176C27.8838 15.3657 27.8617 15.4103 27.8291 15.4468C27.7965 15.4834 27.7547 15.5104 27.708 15.525C27.6613 15.5396 27.6116 15.5413 27.564 15.5299C27.5165 15.5186 27.4729 15.4945 27.4378 15.4603C27.1783 15.2027 27.037 14.9067 27.0138 14.5725C26.9652 13.8344 26.8227 13.1137 26.5863 12.4104C26.5052 12.1667 26.4369 12.1702 26.3813 12.4208L26.2596 12.9779C26.2308 13.1116 26.1496 13.2292 26.0337 13.3052C25.7603 13.4793 25.502 13.4711 25.2587 13.2808C25.1591 13.1996 25.1011 13.0951 25.0849 12.9675L24.9563 11.8359C24.9401 11.6827 24.8544 11.598 24.6991 11.5818C22.345 11.3218 20.7764 12.3396 19.9933 14.6352C19.0271 17.4692 18.683 22.5003 22.1064 23.8651C24.5045 24.826 25.7453 22.3192 26.6211 20.648C27.9974 18.0228 28.4956 15.1969 28.1156 12.1702C28.1133 12.1562 28.1051 12.1493 28.0912 12.1493Z" fill="white"/>
</svg>
