<svg width="225" height="248" viewBox="0 0 225 248" fill="none" xmlns="http://www.w3.org/2000/svg">
<path d="M183.414 45.558L180.675 46.0183C180.639 46.0183 180.607 46.0183 180.581 45.9346C180.56 45.8718 180.56 45.8038 180.581 45.741L182.579 38.6694C182.582 38.6519 182.589 38.6354 182.599 38.6212C182.61 38.607 182.624 38.5956 182.64 38.5879C182.655 38.5802 182.673 38.5764 182.691 38.577C182.708 38.5775 182.725 38.5823 182.741 38.5909L184.911 39.4016C184.929 39.4062 184.946 39.4147 184.961 39.4265C184.976 39.4383 184.988 39.4532 184.996 39.4701C185.005 39.487 185.009 39.5055 185.01 39.5244C185.01 39.5433 185.007 39.5621 185 39.5795L183.414 45.558Z" fill="#14101B"/>
<path d="M83.1203 52.9695L83.1516 54.6642C81.8395 55.2153 80.5686 55.8603 79.3487 56.5942C77.1404 57.9019 75.2433 59.1031 73.6575 60.1981C71.6922 57.1853 69.5678 54.28 67.2933 51.4945C66.0926 50.024 64.7904 48.6397 63.3966 47.3519C62.0934 46.1028 60.4667 45.2456 58.7017 44.8779C58.0976 44.7315 57.4643 44.7621 56.8771 44.9661C56.2899 45.17 55.7734 45.5388 55.3892 46.0286C55.5422 45.2635 55.8226 44.5297 56.2186 43.8579C57.9035 41.0439 60.8196 40.8347 63.7461 41.4466C65.2696 41.7688 66.7607 42.2292 68.201 42.8223C73.887 45.1498 78.6341 48.6125 83.1203 52.9747V52.9695Z" fill="#8E81A8"/>
<path d="M160.388 77.1137C160.366 77.1003 160.341 77.0915 160.315 77.0875C160.292 77.0857 160.27 77.0921 160.252 77.1056C160.234 77.119 160.221 77.1386 160.216 77.1608L159.449 80.4141C159.417 80.5379 159.428 80.6688 159.48 80.7855C163.035 88.932 165.736 97.4266 167.54 106.133C167.55 106.183 167.546 106.235 167.526 106.283C167.507 106.33 167.473 106.371 167.43 106.399L166.084 107.33C166.027 107.294 165.928 107.33 165.777 107.43C165.531 107.605 165.269 107.755 164.994 107.88C162.944 101.394 158.708 96.0586 153.299 91.9945C147.232 87.4387 139.913 83.7251 132.599 82.3913C128.979 81.727 125.119 81.6799 121.801 83.3694C116.282 86.1729 112.584 91.0583 113.126 97.5232C113.378 100.031 114.277 102.431 115.734 104.485C119.532 110.144 125.646 114.193 132.125 116.207C135.361 117.174 138.679 117.846 142.036 118.215C140.019 118.895 137.934 119.354 135.818 119.586C133.554 119.742 132.125 119.837 131.52 119.863C125.5 120.121 119.487 120.234 113.481 120.203C114.285 116.836 114.326 113.331 113.601 109.946C113.079 107.513 112.083 105.238 109.605 104.276C107.982 103.645 106.272 103.267 104.534 103.156C103.731 101.394 101.952 101.315 100.246 101.321H93.564C92.5109 101.328 91.4615 101.449 90.4341 101.681C89.3543 101.912 88.8013 102.503 88.77 103.444C87.2051 103.748 85.807 103.967 84.482 105.013C84.0468 105.361 83.6845 105.791 83.4159 106.279C83.1473 106.768 82.9778 107.304 82.9171 107.859C82.5413 111.123 83.1635 114.424 84.7011 117.326C83.5088 117.138 82.3279 116.883 81.1643 116.562C77.5475 115.589 75.1131 114.925 73.8611 114.569C76.5081 112.868 78.8633 110.748 80.8357 108.293C82.3596 106.368 83.4877 104.159 84.1548 101.794C84.8218 99.4296 85.0146 96.9556 84.722 94.5156C84.2908 90.0592 82.3067 86.6681 78.7699 84.3423C76.235 82.7339 73.3502 81.7631 70.3608 81.5125L72.8909 77.6681C74.2106 77.5217 75.5356 77.3072 76.8606 77.0352C77.857 76.826 79.495 76.2873 79.6619 75.1208C79.6866 74.6639 79.6569 74.2056 79.5733 73.7557C79.438 72.8211 79.1301 71.92 78.6656 71.0986C81.5071 68.8457 84.5672 66.8848 87.7997 65.2456C87.8821 65.2006 87.9763 65.182 88.0696 65.1923C88.1628 65.2026 88.2507 65.2413 88.3214 65.3032C89.6119 66.4131 91.154 67.1889 92.8128 67.5627C93.6214 67.7458 94.4248 67.9236 95.2177 68.0858C98.0242 68.6716 101.06 68.2793 103.955 67.84C105.802 67.5575 107.477 66.956 109.235 66.5428C111.049 66.0706 112.8 65.3823 114.451 64.4924C116.628 63.3801 118.737 62.395 120.779 61.5372C122.721 60.7058 124.537 59.6035 126.173 58.2629C127.263 57.3841 128.176 56.2753 129.214 55.2658C129.365 55.1193 129.339 55.0147 129.141 54.952C128.884 54.8779 128.651 54.7393 128.463 54.5492C129.445 53.879 130.294 53.0312 130.967 52.049L131.702 51.4318C132.646 50.6315 133.622 49.8627 134.613 49.0781C136.878 47.3313 139.263 45.7461 141.749 44.334C145.536 42.1686 150.242 40.3117 154.232 42.2784C157.931 44.0986 159.767 48.7329 160.586 52.4884C161.471 56.5188 161.889 60.638 161.833 64.7644C161.755 68.7936 161.242 72.8026 160.304 76.7214C160.303 76.8566 160.341 76.9893 160.414 77.1032M159.339 74.2055C160.521 68.9206 160.988 63.5001 160.727 58.0903C160.635 55.025 159.99 52.0018 158.823 49.167C158.203 47.7215 157.222 46.4605 155.975 45.5056C155.571 45.2191 155.115 45.0152 154.632 44.9057C154.15 44.7962 153.651 44.7832 153.163 44.8675C151.076 45.1918 149.183 46.4367 147.571 47.7391C143.935 50.7807 140.69 54.2629 137.91 58.106C137.902 58.116 137.897 58.1275 137.894 58.1398C137.891 58.1521 137.891 58.1649 137.893 58.1772C137.896 58.1896 137.901 58.2013 137.908 58.2116C137.916 58.2218 137.925 58.2304 137.936 58.2367C141.273 60.3856 144.452 62.7734 147.446 65.3816C151.347 68.7545 155.065 72.3357 158.583 76.1094C158.593 76.1216 158.606 76.1308 158.62 76.136C158.635 76.1412 158.651 76.1423 158.666 76.139C158.681 76.1358 158.695 76.1283 158.706 76.1176C158.717 76.1068 158.725 76.0931 158.729 76.078L159.298 74.216M96.3131 70.3925C96.1847 70.4873 96.0765 70.607 95.9949 70.7444C95.9133 70.8819 95.86 71.0343 95.8381 71.1928C95.8162 71.3512 95.8262 71.5124 95.8675 71.6669C95.9087 71.8215 95.9805 71.9661 96.0784 72.0924C96.4809 72.5674 97.0089 72.9191 97.6016 73.1071C99.5552 73.7664 101.674 73.7406 103.611 73.0339C104.076 72.8577 104.498 72.583 104.847 72.2284C105.411 71.5955 105.322 70.8789 104.607 70.2826C104.169 69.9436 103.669 69.6915 103.136 69.5399C101.413 69.0298 99.5802 69.0298 97.8572 69.5399C97.2813 69.702 96.7474 69.9875 96.2923 70.3768M122.672 75.9159C122.599 77.6577 125.802 78.233 127.023 78.3795C129.416 78.6689 131.546 78.9513 133.413 79.2268C134.556 79.3942 135.568 79.4099 136.35 78.6724C137.665 77.4275 136.872 75.4608 135.735 74.3624C133.805 72.4346 131.349 71.124 128.677 70.5964C124.629 69.77 122.829 72.1656 122.672 75.9159ZM96.5062 77.1764C95.33 77.3401 94.1914 77.7083 93.1415 78.2644C92.674 78.5153 92.2567 78.8504 91.9104 79.253C91.6163 79.5683 91.4417 79.9769 91.4169 80.4078C91.3922 80.8388 91.5188 81.2648 91.7747 81.6119C92.0559 81.9985 92.4104 82.3256 92.8181 82.5743C94.0802 83.3318 95.4955 83.7965 96.96 83.9343C99.5683 84.2638 102.359 83.8924 104.232 82.9666C104.778 82.7124 105.272 82.3575 105.687 81.9205C106.046 81.5896 106.263 81.1317 106.291 80.6436C106.319 80.1555 106.157 79.6756 105.839 79.3053C105.391 78.7781 104.831 78.3581 104.201 78.0761C102.218 77.1032 99.2344 76.758 96.5322 77.1817M93.7988 91.5342C93.6888 91.6574 93.6054 91.8021 93.554 91.9592C93.5025 92.1163 93.484 92.2824 93.4997 92.447C93.5154 92.6116 93.5649 92.7711 93.6451 92.9156C93.7253 93.0601 93.8344 93.1864 93.9657 93.2865C94.5858 93.8106 95.3323 94.1623 96.1306 94.3064C97.6836 94.6524 99.2988 94.5984 100.825 94.1495C101.389 93.991 101.913 93.7166 102.364 93.344C102.501 93.2512 102.618 93.1313 102.707 92.9918C102.796 92.8522 102.856 92.6959 102.883 92.5324C102.91 92.3689 102.903 92.2016 102.863 92.0408C102.823 91.8799 102.751 91.7289 102.651 91.597C102.398 91.2788 102.077 91.0214 101.712 90.8438C100.041 90.1015 98.1803 89.904 96.3914 90.2789C95.4206 90.4052 94.5176 90.846 93.8196 91.5342H93.7988Z" fill="#8E81A8"/>
<path d="M73.6577 60.198L74.1011 60.9355C74.1127 60.9506 74.121 60.968 74.1254 60.9865C74.1299 61.005 74.1304 61.0243 74.127 61.043C74.1235 61.0618 74.1162 61.0796 74.1055 61.0953C74.0947 61.111 74.0808 61.1243 74.0646 61.1343C71.9989 62.7522 69.9575 64.4609 67.9404 66.2602C64.8991 68.9801 62.7656 71.8568 60.1938 75.4973C60.7026 73.179 61.3471 70.8928 62.1239 68.6505C62.8138 66.6819 63.6707 64.7763 64.6853 62.9545C64.72 62.8865 64.7382 62.8112 64.7382 62.7348C64.7382 62.6584 64.72 62.5831 64.6853 62.5151C63.4437 59.9365 62.077 57.4572 60.6529 54.9989C59.0879 52.2058 57.4082 50.4483 54.8051 47.65C54.7707 47.3724 54.8334 47.0914 54.9825 46.8549C55.1489 46.5915 55.2903 46.3131 55.405 46.0233C55.7887 45.5373 56.3028 45.1713 56.8868 44.9684C57.4709 44.7655 58.1006 44.734 58.7019 44.8778C60.467 45.2456 62.0936 46.1028 63.3968 47.3518C64.7907 48.6397 66.0928 50.0239 67.2935 51.4944C69.568 54.2799 71.6924 57.1852 73.6577 60.198Z" fill="#422B4F"/>
<path d="M155.975 45.5056C151.243 48.9944 147.31 53.8744 145.5 59.4659C145.46 59.5761 145.446 59.6943 145.461 59.8108C145.475 59.9272 145.517 60.0385 145.583 60.1354C147.341 62.8633 149.395 65.3876 151.708 67.6621C153.387 69.3219 155.924 71.503 159.319 74.2055L158.75 76.0675C158.746 76.0826 158.738 76.0963 158.727 76.1071C158.716 76.1178 158.702 76.1253 158.687 76.1285C158.671 76.1318 158.656 76.1308 158.641 76.1255C158.626 76.1203 158.614 76.1111 158.604 76.0989C155.079 72.3282 151.354 68.7506 147.446 65.3816C144.449 62.7768 141.27 60.3924 137.931 58.2472C137.92 58.2408 137.91 58.2322 137.903 58.222C137.896 58.2117 137.891 58.2 137.888 58.1877C137.886 58.1753 137.886 58.1626 137.889 58.1503C137.892 58.138 137.897 58.1264 137.905 58.1164C140.685 54.2733 143.93 50.7911 147.566 47.7495C149.178 46.4471 151.087 45.2022 153.158 44.8779C153.645 44.7915 154.145 44.8024 154.629 44.9101C155.112 45.0178 155.569 45.2202 155.975 45.5056Z" fill="#422B4F"/>
<path d="M155.975 45.5056C157.224 46.4598 158.207 47.7209 158.828 49.167C159.987 52.0067 160.623 55.0335 160.706 58.1007C160.967 63.5106 160.5 68.931 159.319 74.216C155.928 71.5135 153.391 69.3324 151.708 67.6726C149.394 65.4 147.338 62.8775 145.578 60.1511C145.512 60.0542 145.47 59.9429 145.456 59.8265C145.441 59.71 145.455 59.5918 145.495 59.4816C147.305 53.864 151.233 49.0205 155.97 45.5213L155.975 45.5056Z" fill="#684D78"/>
<path d="M183.414 45.5579C186.683 45.7618 189.815 46.9443 192.407 48.9525C195.21 51.0805 197.773 53.5097 200.049 56.1967C202.484 59.1119 204.469 61.422 206.007 63.1272C207.773 65.036 209.993 66.4648 212.459 67.2802C214.014 67.8347 215.808 68.4205 217.843 69.0377C218.432 69.2155 220.373 69.8223 219.491 70.6644C217.021 73.0135 213.997 74.6961 210.701 75.5549C208.371 76.1128 205.934 76.0443 203.638 75.3562C202.259 75.0067 200.907 74.5538 199.595 74.0014C196.9 71.6403 194.426 69.0369 192.204 66.2237C191.021 64.6929 189.366 62.36 187.237 59.2252C186.632 58.336 186.163 57.3788 185.62 56.4583C185.594 56.4112 185.62 56.4007 185.646 56.4583C187.441 57.7868 189.218 59.0735 190.978 60.3184C191.902 61.0777 192.874 61.7765 193.889 62.4106C194.697 62.8343 195.292 63.4567 196.158 63.8333C196.642 64.0889 197.108 64.3791 197.551 64.7016C198.493 65.2645 199.399 65.8865 200.263 66.5636C200.274 66.5708 200.286 66.5752 200.298 66.5766C200.311 66.578 200.324 66.5763 200.335 66.5717C200.347 66.5671 200.358 66.5596 200.366 66.55C200.374 66.5404 200.38 66.5289 200.383 66.5166C200.396 66.4846 200.396 66.4491 200.383 66.4172C199.011 64.1838 197.665 62.0863 196.377 59.7378C195.507 58.0981 194.409 56.5906 193.116 55.2605C190.98 53.1441 188.542 51.3583 185.881 49.962C185.178 49.5598 184.416 49.2737 183.622 49.1146C182.258 48.9012 180.873 48.8503 179.496 48.9629L180.273 46.3477C180.284 46.3065 180.303 46.2682 180.33 46.2356C180.357 46.203 180.391 46.177 180.43 46.1594L180.675 46.0338L183.414 45.5736V45.5579Z" fill="#FAE26C"/>
<path d="M54.7738 47.6501C57.3821 50.4485 59.0357 52.2059 60.6215 54.999C62.0248 57.4574 63.4124 59.9366 64.6539 62.5153C64.6887 62.5833 64.7069 62.6586 64.7069 62.735C64.7069 62.8114 64.6887 62.8867 64.6539 62.9547C63.6483 64.7773 62.8001 66.683 62.1187 68.6507C61.3419 70.893 60.6974 73.1792 60.1886 75.4974L59.1453 76.9934C59.1333 77.014 59.1162 77.0311 59.0956 77.043C59.075 77.055 59.0517 77.0612 59.0279 77.0612C59.0041 77.0612 58.9808 77.055 58.9602 77.043C58.9396 77.0311 58.9224 77.014 58.9105 76.9934C58.8201 76.8248 58.7019 76.6727 58.561 76.5436C58.2658 76.0166 58.0545 75.4465 57.935 74.8541C57.8655 74.0846 57.6458 73.3364 57.2882 72.652C57.0169 71.7472 56.5318 69.8694 55.8275 67.0031C54.7231 62.5362 54.1522 57.9535 54.1269 53.3514C54.1119 51.4318 54.3291 49.5174 54.7738 47.6501Z" fill="#684D78"/>
<path d="M199.595 74.0015C198.204 73.5273 196.869 73.0844 195.589 72.673C192.172 71.5693 189.204 71.8988 185.704 72.7253C182.72 73.4227 179.83 74.2526 177.034 75.215L174.264 76.1879C174.264 76.2402 174.264 76.2506 174.196 76.2193C174.17 76.207 174.149 76.1866 174.136 76.1611C174.123 76.1355 174.118 76.1063 174.123 76.078C175.076 70.4395 176.102 64.8376 177.201 59.2724C177.896 55.8063 178.661 52.3698 179.496 48.963C180.873 48.8504 182.258 48.9013 183.622 49.1147C184.407 49.2677 185.163 49.5449 185.86 49.9359C188.521 51.3322 190.96 53.118 193.096 55.2344C194.388 56.5645 195.486 58.072 196.356 59.7117C197.644 62.0602 198.964 64.1577 200.362 66.3911C200.375 66.423 200.375 66.4585 200.362 66.4905C200.359 66.5029 200.354 66.5143 200.345 66.5239C200.337 66.5335 200.326 66.541 200.315 66.5456C200.303 66.5502 200.29 66.5519 200.278 66.5505C200.265 66.5491 200.253 66.5447 200.242 66.5376C199.378 65.8604 198.472 65.2385 197.53 64.6755C197.088 64.355 196.625 64.0666 196.142 63.8125C195.276 63.462 194.681 62.8134 193.873 62.3897C192.859 61.7557 191.887 61.0568 190.962 60.2975C189.202 59.0527 187.425 57.766 185.631 56.4374C185.589 56.4008 185.579 56.4113 185.605 56.4374C186.126 57.358 186.617 58.3152 187.222 59.2044C189.35 62.3427 191.006 64.6755 192.188 66.2028C194.41 69.016 196.884 71.6194 199.58 73.9806L199.595 74.0015Z" fill="#DFAB3A"/>
<path d="M128.437 54.5596C128.625 54.7497 128.858 54.8883 129.115 54.9624C129.313 55.0252 129.339 55.1298 129.188 55.2762C128.144 56.2857 127.237 57.3684 126.146 58.2733C124.511 59.6139 122.695 60.7163 120.753 61.5476C118.708 62.4054 116.598 63.3905 114.425 64.5029C112.774 65.3927 111.023 66.081 109.208 66.5532C107.45 66.9664 105.776 67.5679 103.929 67.8504C101.034 68.2898 97.998 68.6821 95.1915 68.0962C94.3986 67.9289 93.5952 67.751 92.7866 67.5732C91.1278 67.1994 89.5857 66.4235 88.2952 65.3136C88.2245 65.2517 88.1367 65.213 88.0434 65.2027C87.9501 65.1924 87.8559 65.211 87.7735 65.2561C84.541 66.8953 81.4809 68.8561 78.6394 71.109C78.2427 70.5083 77.6872 70.0301 77.0349 69.7281C76.3826 69.426 75.6593 69.3119 74.9461 69.3986C71.6043 69.6996 68.4988 71.2537 66.2501 73.7504C65.139 74.9273 64.7947 77.4589 66.803 78.1231C67.3323 78.3211 67.9028 78.3823 68.4619 78.301C69.9225 78.022 71.404 77.8145 72.9064 77.6785L70.3764 81.523C67.4381 81.2101 64.4697 81.6848 61.7743 82.8986C57.7741 84.8205 54.33 87.7354 51.769 91.3668C51.7407 91.4087 51.6979 91.4385 51.649 91.4505C51.5877 91.4688 51.5224 91.4688 51.4612 91.4505C53.2974 86.22 55.4936 81.1516 58.5557 76.5226C58.6966 76.6517 58.8148 76.8038 58.9052 76.9724C58.9171 76.9931 58.9342 77.0102 58.9548 77.0221C58.9754 77.034 58.9988 77.0403 59.0226 77.0403C59.0463 77.0403 59.0697 77.034 59.0903 77.0221C59.1109 77.0102 59.128 76.9931 59.1399 76.9724L60.1832 75.4765C62.755 71.8151 64.8781 68.9593 67.9298 66.2394C69.9504 64.4401 71.9918 62.7315 74.054 61.1135C74.0702 61.1035 74.0841 61.0902 74.0949 61.0745C74.1056 61.0588 74.113 61.041 74.1164 61.0223C74.1199 61.0035 74.1193 60.9843 74.1149 60.9657C74.1104 60.9472 74.1021 60.9298 74.0905 60.9147L73.6471 60.1772C75.233 59.0788 77.1301 57.8775 79.3384 56.5734C80.5582 55.8395 81.8291 55.1944 83.1413 54.6433C83.5838 56.0913 84.311 57.4359 85.28 58.5976C86.6011 60.2648 88.2088 61.6819 90.0271 62.782C92.7093 64.5271 95.8015 65.5354 98.9943 65.7059C101.43 65.8366 104.049 65.2351 106.464 64.5552C109.78 63.6229 113.019 62.4337 116.152 60.9984C120.435 59.2356 124.544 57.0747 128.426 54.5439L128.437 54.5596Z" fill="#755387"/>
<path d="M97.6171 73.1069C97.6464 72.755 97.572 72.4022 97.4032 72.0922C97.0862 71.5004 96.7271 70.9323 96.3286 70.3923C96.7837 70.003 97.3177 69.7175 97.8936 69.5554C99.6165 69.0453 101.45 69.0453 103.173 69.5554C103.706 69.707 104.205 69.9591 104.644 70.2981C105.358 70.8944 105.447 71.611 104.884 72.2439C104.534 72.5985 104.113 72.8732 103.647 73.0494C101.71 73.7561 99.5915 73.7819 97.638 73.1226L97.6171 73.1069Z" fill="#81D6FB"/>
<path d="M78.6706 71.1038C79.1352 71.9253 79.443 72.8264 79.5783 73.7609C79.6619 74.2108 79.6917 74.6691 79.667 75.1261C79.5001 76.2925 77.8621 76.8312 76.8657 77.0405C75.5407 77.3125 74.2157 77.5269 72.8959 77.6734C71.3936 77.8094 69.9121 78.0168 68.4514 78.2958C67.8924 78.3771 67.3219 78.3159 66.7926 78.118C64.7842 77.4537 65.1285 74.9221 66.2396 73.7452C68.4987 71.2391 71.6208 69.6841 74.9773 69.3934C75.6906 69.3067 76.4139 69.4208 77.0662 69.7229C77.7185 70.025 78.274 70.5031 78.6706 71.1038Z" fill="#3F355A"/>
<path d="M96.3286 70.3923C96.7271 70.9323 97.0863 71.5004 97.4032 72.0923C97.572 72.4022 97.6464 72.755 97.6171 73.107C97.0244 72.919 96.4964 72.5673 96.0939 72.0923C95.996 71.966 95.9242 71.8213 95.883 71.6668C95.8417 71.5123 95.8317 71.3511 95.8536 71.1926C95.8755 71.0342 95.9288 70.8817 96.0104 70.7443C96.0919 70.6068 96.2002 70.4872 96.3286 70.3923Z" fill="#C9D1DD"/>
<path d="M127.059 78.3951C125.849 78.2487 122.636 77.6733 122.709 75.9316C122.865 72.1656 124.665 69.7857 128.713 70.6121C131.385 71.1397 133.842 72.4503 135.771 74.3781C136.887 75.4765 137.701 77.4432 136.387 78.6881C135.604 79.4256 134.592 79.4099 133.45 79.2425C131.582 78.9635 129.452 78.6811 127.059 78.3951Z" fill="#3F355A"/>
<path d="M177.034 75.2148L172.469 103.481L170.602 99.4531L174.264 76.1877L177.034 75.2148Z" fill="#14101B"/>
<path d="M96.9286 83.9343C96.8551 83.4196 96.7202 82.9156 96.5269 82.4331C96.3548 81.999 96.36 81.5649 96.1722 81.1516C96.1021 80.9957 96.0564 80.8299 96.0366 80.66C95.948 80.2295 95.9374 79.7866 96.0053 79.3524C96.1409 78.6462 96.3078 77.9244 96.5269 77.1765C99.2291 76.7528 102.213 77.098 104.195 78.0709C104.826 78.3529 105.386 78.7729 105.833 79.3C106.152 79.6704 106.314 80.1503 106.286 80.6384C106.257 81.1264 106.041 81.5844 105.682 81.9153C105.266 82.3523 104.773 82.7071 104.227 82.9614C102.354 83.8872 99.5682 84.2586 96.9547 83.9291L96.9286 83.9343Z" fill="#81D6FB"/>
<path d="M96.506 77.1763C96.313 77.9242 96.1461 78.646 95.9843 79.3522C95.9164 79.7864 95.927 80.2293 96.0156 80.6598C96.0355 80.8297 96.0812 80.9955 96.1513 81.1515C96.3391 81.5647 96.3339 81.9988 96.506 82.4329C96.6993 82.9154 96.8341 83.4194 96.9077 83.9341C95.4431 83.7963 94.0279 83.3316 92.7657 82.5742C92.3581 82.3254 92.0035 81.9984 91.7224 81.6118C91.4664 81.2647 91.3398 80.8386 91.3646 80.4077C91.3894 79.9767 91.564 79.5681 91.8581 79.2528C92.2044 78.8502 92.6217 78.5151 93.0892 78.2642C94.1391 77.7081 95.2777 77.34 96.4538 77.1763H96.506Z" fill="#C9D1DD"/>
<path d="M70.3659 81.5177C73.3535 81.7691 76.2364 82.7398 78.7697 84.3474C82.3066 86.6767 84.2906 90.0679 84.7218 94.5208C85.0174 96.9594 84.8279 99.4326 84.1644 101.797C83.501 104.162 82.3766 106.372 80.8564 108.298C78.884 110.753 76.5288 112.873 73.8818 114.575C72.023 115.842 69.9991 116.847 67.8672 117.561C66.5056 117.713 65.2589 117.954 63.8974 117.634C62.5932 117.331 61.9568 116.588 61.9881 115.317L61.7325 113.424C61.7325 113.33 61.6699 113.298 61.5864 113.325L59.2912 114.025C56.3908 114.587 54.3563 113.631 53.1878 111.159C53.1513 111.081 53.1043 111.075 53.0522 111.159C52.2627 112.094 51.7411 112.699 51.4872 112.974C50.9552 113.538 50.364 114.043 49.724 114.48C49.0198 114.815 48.1956 115.129 47.5487 114.596C46.1976 113.471 45.9577 109.606 45.9838 107.948C46.0774 102.242 47.8965 96.6987 51.2003 92.052C51.295 91.8716 51.3668 91.6801 51.4142 91.4818C51.4754 91.5002 51.5407 91.5002 51.602 91.4818C51.6509 91.4698 51.6937 91.44 51.722 91.3982C54.283 87.7668 57.7271 84.8518 61.7273 82.9299C64.4227 81.7161 67.3911 81.2414 70.3294 81.5543M62.4315 98.292C62.6871 100.776 66.7247 100.055 68.2271 99.7356C69.8268 99.3869 71.6092 98.9266 73.5741 98.3547C73.9139 98.2297 74.204 97.9974 74.4007 97.6926C74.5973 97.3879 74.6899 97.0273 74.6643 96.6653C74.6641 95.6757 74.5874 94.6877 74.4348 93.71C74.0957 91.5865 70.1103 92.8052 68.827 93.0928C66.2813 93.6577 64.5129 95.0334 62.8175 97.0785C62.6722 97.2425 62.5627 97.4352 62.4962 97.6442C62.4297 97.8532 62.4077 98.0739 62.4315 98.292Z" fill="#3F355A"/>
<path d="M164.994 107.88C165.151 108.471 165.297 109.077 165.427 109.7C165.469 109.867 165.462 110.043 165.405 110.205C165.349 110.368 165.246 110.511 165.109 110.615C163.45 112.378 161.003 111.766 159.125 110.809C158.969 110.73 158.938 110.762 159.042 110.908C159.991 112.294 160.315 113.644 160.002 114.946C159.746 115.125 159.46 115.254 159.157 115.328C157.388 115.223 155.643 114.871 153.972 114.282L149.391 112.566C149.313 112.566 149.292 112.566 149.329 112.634C149.835 113.615 150.167 114.677 150.31 115.772C150.313 116.065 150.264 116.356 150.163 116.63C149.596 117.35 148.785 117.835 147.884 117.995C146.99 118.163 145.978 118.297 144.848 118.398L142.031 118.226C138.673 117.857 135.356 117.184 132.119 116.217C125.646 114.203 119.527 110.155 115.729 104.495C114.272 102.441 113.373 100.042 113.121 97.5336C112.599 91.0687 116.251 86.1834 121.796 83.3798C125.114 81.6904 128.974 81.7374 132.594 82.4017C139.897 83.7355 147.227 87.4492 153.293 92.0049C158.703 96.0691 162.939 101.42 164.989 107.89M131.9 93.7153C130.729 93.2294 129.503 92.8886 128.249 92.7006C127.044 92.4861 124.514 91.8742 124.237 93.7467C124.085 94.7329 124.017 95.7303 124.034 96.7281C124.009 97.1051 124.122 97.4783 124.35 97.7791C124.578 98.0798 124.906 98.288 125.275 98.3653C127.393 98.9929 129.302 99.4689 131.014 99.7984C132.49 100.086 135.995 100.583 136.277 98.2816C136.306 98.0576 136.287 97.83 136.22 97.6142C136.154 97.3985 136.041 97.1997 135.891 97.0315C134.821 95.6553 133.467 94.5276 131.921 93.7258L131.9 93.7153Z" fill="#3F355A"/>
<path d="M96.1304 94.2853C96.1601 93.9793 96.0704 93.6737 95.88 93.4328C95.6609 93.1817 95.4522 92.9097 95.2436 92.6639C95.0556 92.4181 94.8344 92.1998 94.5863 92.0153C94.3307 91.8374 94.0646 91.6648 93.7986 91.4922C94.4965 90.804 95.3996 90.3632 96.3703 90.2369C98.1592 89.862 100.02 90.0596 101.691 90.8018C102.056 90.9794 102.377 91.2368 102.63 91.555C102.73 91.6869 102.802 91.8379 102.842 91.9988C102.882 92.1596 102.889 92.3269 102.862 92.4904C102.835 92.6539 102.775 92.8102 102.686 92.9498C102.597 93.0893 102.48 93.2092 102.343 93.302C101.892 93.6746 101.368 93.949 100.804 94.1075C99.2778 94.5564 97.6626 94.6104 96.1095 94.2644L96.1304 94.2853Z" fill="#81D6FB"/>
<path d="M93.7986 91.5342C94.0699 91.6859 94.3203 91.8585 94.5863 92.0572C94.8344 92.2417 95.0556 92.46 95.2436 92.7058C95.4523 92.9673 95.6609 93.2289 95.88 93.4747C96.0704 93.7157 96.1602 94.0213 96.1304 94.3273C95.3322 94.1832 94.5857 93.8315 93.9656 93.3073C93.8343 93.2072 93.7251 93.081 93.6449 92.9365C93.5647 92.792 93.5152 92.6325 93.4996 92.4679C93.4839 92.3033 93.5024 92.1372 93.5538 91.9801C93.6053 91.823 93.6886 91.6783 93.7986 91.5551V91.5342Z" fill="#C9D1DD"/>
<path d="M68.2636 99.6729C66.7613 99.992 62.7237 100.719 62.4681 98.2293C62.4442 98.0112 62.4663 97.7906 62.5327 97.5815C62.5992 97.3725 62.7087 97.1798 62.8541 97.0158C64.5495 94.9707 66.3179 93.5951 68.8635 93.0302C70.1468 92.7425 74.1322 91.5238 74.4713 93.6474C74.6239 94.625 74.7007 95.6131 74.7008 96.6026C74.7264 96.9647 74.6339 97.3253 74.4372 97.63C74.2406 97.9347 73.9504 98.1671 73.6106 98.2921C71.6422 98.8674 69.8599 99.3277 68.2636 99.6729Z" fill="#14101B"/>
<path d="M131.906 93.7049C133.451 94.5067 134.805 95.6344 135.875 97.0106C136.026 97.1788 136.138 97.3776 136.205 97.5933C136.271 97.8091 136.291 98.0367 136.261 98.2607C135.98 100.562 132.474 100.065 130.998 99.7775C129.313 99.448 127.404 98.972 125.26 98.3443C124.891 98.267 124.562 98.0589 124.334 97.7581C124.106 97.4574 123.994 97.0842 124.018 96.7072C124.001 95.7094 124.069 94.712 124.222 93.7258C124.498 91.8637 127.028 92.4757 128.233 92.6797C129.487 92.8677 130.713 93.2085 131.885 93.6944L131.906 93.7049Z" fill="#14101B"/>
<path d="M104.529 103.156C105.009 104.365 104.409 105.845 103.752 106.901C103.104 107.98 102.256 108.925 101.253 109.684C98.8953 111.483 96.4226 111.175 93.8039 110.207C92.9639 109.925 92.1709 109.517 91.4512 108.999C90.0849 107.932 89.1838 106.376 88.9369 104.658L88.7751 103.434C88.8064 102.492 89.3594 101.901 90.4392 101.671C91.4667 101.439 92.516 101.318 93.5692 101.31H100.252C101.957 101.31 103.736 101.383 104.54 103.146L104.529 103.156Z" fill="#14101B"/>
<path d="M104.529 103.156C106.267 103.267 107.977 103.645 109.6 104.276C112.078 105.238 113.084 107.513 113.596 109.946C114.321 113.331 114.28 116.836 113.476 120.203L112.996 121.322C112.923 119.596 112.787 117.907 112.594 116.243C112.265 113.455 112.01 111.63 110.8 109.444C110.736 109.301 110.625 109.185 110.487 109.114C108.282 108.252 106.034 107.507 103.752 106.881C104.409 105.834 105.009 104.344 104.529 103.135V103.156Z" fill="#DBCAFB"/>
<path d="M88.7751 103.455L88.9368 104.678L84.4871 105.013C85.8121 103.967 87.2153 103.758 88.7751 103.444V103.455Z" fill="#DBCAFB"/>
<path d="M88.9369 104.678C89.1838 106.397 90.085 107.953 91.4513 109.02C92.1709 109.538 92.9639 109.945 93.804 110.228C96.4122 111.175 98.8953 111.483 101.253 109.705C102.256 108.946 103.104 108.001 103.752 106.922C106.034 107.549 108.282 108.294 110.486 109.156C110.625 109.227 110.736 109.343 110.799 109.485C112.01 111.651 112.265 113.476 112.594 116.285C112.787 117.948 112.923 119.638 112.996 121.364L111.665 122.834C109.89 123.56 108 123.96 106.084 124.016C102.801 124.148 99.5195 124.148 96.2401 124.016C93.8306 123.925 91.473 123.288 89.3438 122.154C87.8771 121.281 86.6042 120.117 85.6035 118.733C85.4262 118.492 85.1288 118.032 84.7115 117.352C83.1739 114.45 82.5517 111.149 82.9275 107.885C82.9882 107.33 83.1577 106.794 83.4263 106.305C83.6949 105.817 84.0572 105.387 84.4924 105.039L88.9421 104.705L88.9369 104.678Z" fill="#A698C5"/>
<path d="M171.457 110.014L171.087 112.148L169.819 110.73L171.457 110.014Z" fill="#14101B"/>
<path d="M169.819 110.73L171.087 112.148C173.018 114.549 174.376 117.362 175.057 120.37C174.604 119.434 174.09 118.529 173.518 117.661C172.019 115.406 170.339 113.277 168.494 111.295H168.406L169.814 110.709L169.819 110.73Z" fill="#7484A0"/>
<path d="M168.494 111.295C170.34 113.285 172.02 115.423 173.518 117.687C174.09 118.555 174.604 119.46 175.057 120.396C175.062 120.809 175.203 121.208 175.458 121.531C175.899 122.954 176.263 124.4 176.549 125.862C177.39 130.266 178.15 134.974 178.828 139.985C178.98 141.046 179.074 142.114 179.11 143.186C179.155 146.324 179.145 150.334 179.079 155.216L174.832 148.505C175.027 145.99 175.003 143.463 174.759 140.952C174.384 137.845 173.718 133.673 172.761 128.436C172.448 126.73 172.078 125.029 171.65 123.331C170.955 120.541 170.31 118.309 169.715 116.636C169.44 115.861 168.774 114.191 167.717 111.625L168.5 111.306L168.494 111.295Z" fill="#1E263E"/>
<path d="M167.717 111.614C168.761 114.177 169.427 115.847 169.715 116.625C170.31 118.309 170.955 120.541 171.65 123.32C172.078 125.022 172.449 126.723 172.762 128.425C173.715 133.655 174.38 137.828 174.76 140.942C175.003 143.452 175.027 145.979 174.833 148.494L168.213 138.086C168.283 138.057 168.341 138.006 168.38 137.941C168.418 137.876 168.435 137.8 168.427 137.725C167.863 133.16 167.357 128.646 166.909 124.183C166.804 122.967 166.63 121.759 166.387 120.563C165.89 118.032 165.083 115.573 163.982 113.241L167.738 111.635L167.717 111.614Z" fill="#3A4465"/>
<path d="M153.972 114.261L150.32 115.762C150.177 114.667 149.845 113.605 149.339 112.624C149.303 112.55 149.339 112.53 149.402 112.556L153.982 114.271L153.972 114.261Z" fill="#8E81A8"/>
<path d="M163.961 113.22C165.062 115.552 165.87 118.012 166.366 120.543C166.609 121.738 166.783 122.947 166.888 124.162C167.336 128.626 167.842 133.14 168.406 137.704C168.414 137.779 168.397 137.855 168.359 137.92C168.32 137.985 168.262 138.036 168.192 138.065L155.777 118.466L154.942 117.174L159.115 115.302C159.418 115.228 159.705 115.099 159.96 114.92L163.92 113.194L163.961 113.22Z" fill="#1E263E"/>
<path d="M61.9726 115.312C60.9974 115.075 60.0836 114.633 59.2913 114.015L61.5709 113.319C61.6544 113.293 61.7065 113.319 61.7169 113.419L61.9726 115.312Z" fill="#755387"/>
<path d="M73.8662 114.548C75.1217 114.897 77.5561 115.561 81.1694 116.541C82.333 116.862 83.5139 117.117 84.7062 117.305C85.1235 118.002 85.4209 118.463 85.5982 118.686C86.6027 120.057 87.8753 121.208 89.3385 122.07C88.7913 122.14 88.2373 122.14 87.6901 122.07C82.1647 121.392 76.7015 120.276 71.3519 118.733L67.8516 117.566C69.9852 116.842 72.0091 115.827 73.8662 114.548Z" fill="#755387"/>
<path d="M153.205 117.896L149.553 131.82L142.339 134.655C141.206 133.446 139.722 132.626 138.098 132.311C137.858 132.311 137.722 132.269 137.691 132.186L138.958 125.386L139.934 120.82C139.945 120.771 139.966 120.725 139.997 120.685C140.028 120.645 140.067 120.613 140.111 120.59L144.853 118.372C145.983 118.274 146.995 118.14 147.889 117.969C148.79 117.809 149.601 117.323 150.169 116.604L153.617 115.961C153.634 115.957 153.651 115.958 153.667 115.964C153.683 115.969 153.698 115.978 153.71 115.991C153.721 116.004 153.729 116.019 153.733 116.036C153.737 116.052 153.736 116.07 153.732 116.086L153.21 117.88L153.205 117.896Z" fill="#1E2230"/>
<path d="M71.352 118.733C76.7022 120.29 82.1671 121.42 87.6954 122.112C88.2426 122.182 88.7966 122.182 89.3438 122.112C91.4739 123.243 93.8315 123.876 96.2401 123.963C99.523 124.11 102.804 124.11 106.084 123.963C108 123.908 109.89 123.507 111.665 122.781C117.974 122.497 124.259 121.812 130.481 120.731L128.682 122.41C123.113 124.372 117.356 125.75 111.504 126.521C111.112 126.568 110.721 126.641 110.32 126.725C109.454 126.913 108.567 126.887 107.821 127.431C107.247 127.855 106.684 128.294 106.125 128.755C106.116 128.764 106.109 128.775 106.104 128.787C106.099 128.799 106.096 128.812 106.096 128.825C106.096 128.838 106.099 128.851 106.104 128.863C106.109 128.875 106.116 128.886 106.125 128.896C106.137 128.909 106.152 128.919 106.168 128.926C106.184 128.934 106.202 128.937 106.219 128.938L105.646 128.964C103.147 128.964 100.643 128.964 98.1598 128.854C95.8054 128.732 93.4527 128.622 91.1018 128.524L86.9286 128.451C84.7621 128.416 82.6021 128.203 80.4705 127.813C77.4901 124.87 74.4193 122.032 71.2581 119.298C71.2262 119.272 71.2024 119.238 71.1894 119.199C71.1765 119.16 71.175 119.118 71.185 119.078C71.2178 118.943 71.2822 118.817 71.3728 118.712L71.352 118.733Z" fill="#684D78"/>
<path d="M135.813 119.585C135.917 119.612 135.917 119.669 135.813 119.769C135.798 119.781 135.78 119.79 135.761 119.795L130.487 120.741C124.264 121.822 117.98 122.507 111.671 122.792L113.001 121.322L113.481 120.203C119.483 120.231 125.496 120.117 131.52 119.863C132.125 119.863 133.554 119.742 135.818 119.585H135.813Z" fill="#755387"/>
<path d="M176.617 189.167C177.117 187.964 177.604 186.806 178.077 185.694C178.367 185.024 178.573 184.322 178.693 183.602C178.802 182.922 178.912 182.195 179.027 181.421C179.214 180.207 179.423 178.942 179.642 177.634C179.861 176.326 180.039 175.019 180.164 173.826C180.47 170.719 180.771 167.616 181.066 164.516C181.129 163.899 181.191 163.276 181.265 162.643C181.338 162.01 181.384 161.409 181.416 160.765L181.984 160.337C182.025 160.315 182.06 160.283 182.085 160.245C182.111 160.206 182.126 160.162 182.131 160.116C182.136 160.07 182.129 160.024 182.112 159.981C182.094 159.938 182.067 159.901 182.031 159.871C181.865 159.709 181.738 159.51 181.661 159.29C181.876 158.16 181.944 157.007 181.864 155.859C181.339 146.692 180.809 137.389 180.273 127.949C180.259 127.725 180.179 127.511 180.044 127.332C178.771 125.674 176.987 124.194 176.116 122.248C176.006 122.013 175.876 121.725 175.714 121.442C176.681 121.749 177.63 122.109 178.557 122.52C179.391 122.799 180.098 123.369 180.55 124.126C181.022 125.106 181.332 126.157 181.468 127.238C181.87 130.141 182.121 133.064 182.219 135.994C182.476 143.292 182.508 151.138 182.313 159.531C182.188 165.979 181.725 172.417 180.925 178.816C180.69 180.611 180.342 182.39 179.882 184.141C179.399 186.148 178.256 187.933 176.637 189.209L176.617 189.167Z" fill="#7484A0"/>
<path d="M175.458 121.505C175.74 121.589 175.824 121.568 175.704 121.427C175.865 121.73 175.996 121.997 176.105 122.232C176.977 124.157 178.761 125.658 180.033 127.316C180.169 127.495 180.248 127.709 180.263 127.933C180.795 137.369 181.325 146.673 181.854 155.843C181.934 156.991 181.865 158.144 181.651 159.275L179.079 155.205C179.152 150.292 179.162 146.282 179.11 143.175C179.075 142.104 178.98 141.035 178.828 139.974C178.133 134.963 177.373 130.256 176.549 125.852C176.263 124.389 175.899 122.944 175.458 121.521V121.505Z" fill="#3A4465"/>
<path d="M128.682 122.42L123.439 127.504C119.773 128.206 116.058 128.617 112.328 128.734C111.173 128.755 110.01 128.816 108.838 128.917C107.97 128.973 107.099 128.984 106.23 128.948C106.212 128.948 106.195 128.944 106.178 128.937C106.162 128.93 106.148 128.919 106.136 128.906C106.127 128.897 106.119 128.886 106.114 128.874C106.109 128.862 106.106 128.849 106.106 128.836C106.106 128.823 106.109 128.81 106.114 128.797C106.119 128.785 106.127 128.774 106.136 128.765C106.694 128.305 107.257 127.865 107.831 127.442C108.577 126.919 109.464 126.919 110.33 126.736C110.732 126.652 111.123 126.579 111.514 126.532C117.366 125.76 123.123 124.383 128.692 122.42H128.682Z" fill="#8E81A8"/>
<path d="M60.9189 123.54L69.7609 130.114L68.0969 139.618L59.5 132.819C59.7878 129.698 60.2616 126.598 60.9189 123.534V123.54Z" fill="#1E2230"/>
<path d="M123.439 127.504C123.453 127.527 123.46 127.553 123.46 127.58C123.46 127.607 123.453 127.633 123.439 127.656C120.859 130.229 118.376 132.799 115.99 135.366C110.825 135.715 105.745 135.844 100.747 135.753L100.079 135.648C101.213 134.067 102.432 132.55 103.731 131.103C104.357 130.443 105.017 129.817 105.708 129.225C105.764 129.173 105.748 129.089 105.661 128.974L106.235 128.948C107.104 128.984 107.975 128.973 108.843 128.917C110.019 128.819 111.182 128.758 112.333 128.734C116.063 128.617 119.778 128.206 123.444 127.504H123.439Z" fill="#3F355A"/>
<path d="M80.4496 127.823C82.5812 128.213 84.7412 128.427 86.9077 128.462L91.0809 128.535C93.4318 128.632 95.7845 128.742 98.1389 128.864C100.622 128.985 103.126 128.953 105.625 128.974C105.712 129.089 105.727 129.173 105.672 129.225C104.981 129.817 104.321 130.443 103.695 131.103C102.395 132.55 101.176 134.067 100.043 135.648L87.2989 135.35C85.1512 132.714 82.8575 130.201 80.4287 127.823H80.4496Z" fill="#2B1D37"/>
<path d="M149.548 131.809C148.312 137.207 147.133 142.793 146.585 148.024C145.573 157.862 147.107 167.842 148.27 177.639C148.432 179.004 148.15 179.836 147.065 181.018C146.202 181.956 145.273 182.83 144.284 183.633C143.971 184.078 143.533 183.957 142.965 183.272C142.369 182.557 141.856 181.776 141.436 180.945C140.568 179.139 139.844 177.268 139.271 175.348C137.783 170.675 136.713 165.879 136.074 161.016C135.516 157.032 135.357 153.002 135.599 148.986L135.708 147.485C135.825 147.543 135.954 147.573 136.084 147.574C137.675 147.687 139.262 147.305 140.629 146.48C141.996 145.656 143.076 144.428 143.721 142.966C144.886 139.901 144.42 137.13 142.323 134.654L149.548 131.809Z" fill="#30384E"/>
<path d="M137.686 132.186C137.717 132.269 137.852 132.311 138.092 132.311L138.244 133.928C137.378 133.713 136.477 133.682 135.598 133.837C134.72 133.992 133.883 134.329 133.142 134.827C132.401 135.325 131.772 135.972 131.295 136.728C130.818 137.484 130.504 138.331 130.372 139.216C130.212 140.211 130.293 141.23 130.607 142.187C130.921 143.144 131.459 144.012 132.177 144.718C131.949 145.012 131.672 145.263 131.358 145.461C128.948 142.964 128.379 139.981 129.652 136.511C130.154 135.633 130.785 134.836 131.525 134.147C132.355 133.401 133.333 132.841 134.395 132.503C135.457 132.165 136.579 132.057 137.686 132.186Z" fill="#C9D1DD"/>
<path d="M138.092 132.332C139.716 132.647 141.2 133.467 142.333 134.676C144.42 137.151 144.886 139.922 143.731 142.987L142.886 143.233C142.744 143.275 142.645 143.275 142.589 143.233C142.509 143.141 142.462 143.025 142.459 142.903C142.511 142.83 142.532 142.783 142.526 142.746C142.923 141.933 143.117 141.036 143.09 140.131C142.905 136.993 141.29 134.939 138.244 133.969L138.092 132.353V132.332Z" fill="#8C9CB6"/>
<path d="M68.0968 139.618L67.7004 141.752C67.4307 143.323 67.2427 144.906 67.137 146.496C66.7892 152.571 66.711 158.905 66.9022 165.499C66.9153 165.855 66.8604 166.21 66.7405 166.545C66.6159 166.887 66.4695 167.221 66.3023 167.544C64.9826 170.238 63.7671 172.089 61.3153 173.418C61.2975 173.427 61.2777 173.432 61.2575 173.433C61.2374 173.433 61.2175 173.428 61.1996 173.419C61.1816 173.409 61.1662 173.396 61.1546 173.379C61.1429 173.363 61.1354 173.344 61.1327 173.324L59.7869 163.192C59.0242 155.952 58.7175 148.671 58.8688 141.392C58.907 139.801 59.0548 137.474 59.3122 134.409L59.5 132.84L68.0968 139.639V139.618Z" fill="#30384E"/>
<path d="M138.238 133.928C141.292 134.9 142.907 136.954 143.085 140.089C143.111 140.994 142.918 141.891 142.521 142.704L142.485 142.286C142.485 142.266 142.481 142.246 142.473 142.228C142.465 142.21 142.453 142.193 142.438 142.18C142.423 142.167 142.406 142.157 142.387 142.151C142.368 142.144 142.348 142.142 142.328 142.145H142.099C142.051 142.142 142.003 142.154 141.962 142.179C141.921 142.204 141.888 142.242 141.869 142.286C140.714 144.702 138.769 145.857 136.032 145.749C135.991 145.745 135.949 145.75 135.91 145.765C135.871 145.779 135.836 145.802 135.807 145.832C135.51 146.109 135.479 146.355 135.714 146.496C134.376 146.287 133.138 145.663 132.172 144.713C131.454 144.007 130.915 143.139 130.601 142.182C130.287 141.224 130.207 140.205 130.367 139.21C130.499 138.326 130.814 137.48 131.291 136.724C131.768 135.969 132.398 135.323 133.139 134.825C133.879 134.328 134.716 133.991 135.594 133.837C136.472 133.682 137.373 133.713 138.238 133.928ZM131.874 142.997C132.258 143.667 132.785 144.244 133.416 144.688C134.046 145.132 134.767 145.431 135.526 145.565C135.601 145.583 135.679 145.581 135.753 145.559C135.827 145.537 135.894 145.496 135.947 145.44C136 145.383 136.037 145.314 136.055 145.239C136.072 145.164 136.07 145.085 136.047 145.011C135.881 144.433 135.847 143.825 135.948 143.233C135.956 143.197 135.951 143.159 135.935 143.126C135.919 143.093 135.892 143.066 135.86 143.05L134.441 142.27C134.416 142.247 134.383 142.235 134.349 142.235C134.316 142.235 134.283 142.247 134.258 142.27C133.914 142.606 133.513 142.877 133.074 143.07C132.996 143.106 132.909 143.117 132.825 143.103C132.74 143.089 132.662 143.051 132.599 142.992C132.245 142.668 132.375 142.27 133.001 141.789C133.634 141.514 133.862 140.663 133.684 139.237C133.681 139.194 133.666 139.153 133.642 139.117C133.619 139.082 133.587 139.052 133.549 139.033C133.1 138.781 132.098 138.237 131.984 137.683C131.968 137.595 131.971 137.505 131.994 137.418C132.017 137.332 132.058 137.252 132.115 137.183C132.173 137.115 132.244 137.06 132.325 137.022C132.406 136.985 132.494 136.966 132.584 136.966C133.105 136.966 133.893 137.662 134.269 137.976C134.299 137.999 134.335 138.011 134.373 138.011C134.411 138.011 134.447 137.999 134.477 137.976L135.588 137.359C135.637 137.334 135.678 137.295 135.707 137.248C135.735 137.201 135.75 137.147 135.75 137.092L135.792 135.392C135.787 135.279 135.825 135.169 135.897 135.083C135.969 134.997 136.072 134.941 136.183 134.927L136.313 134.9C136.369 134.88 136.429 134.874 136.488 134.882C136.546 134.889 136.602 134.912 136.651 134.946C136.699 134.981 136.738 135.026 136.765 135.08C136.791 135.133 136.805 135.191 136.804 135.251C136.894 135.848 136.915 136.453 136.866 137.055C136.861 137.095 136.869 137.136 136.89 137.17C136.911 137.205 136.943 137.231 136.981 137.244L138.139 137.741C138.162 137.752 138.187 137.758 138.212 137.758C138.238 137.758 138.263 137.752 138.285 137.741L139.782 136.888C140.153 136.684 140.424 136.7 140.591 136.94C140.821 137.359 140.794 137.673 140.518 137.882C140.062 138.17 139.588 138.429 139.099 138.656C139.057 138.673 139.022 138.704 139 138.744C138.978 138.784 138.971 138.831 138.979 138.876C138.988 138.945 139.019 139.009 139.068 139.059C139.141 139.145 139.188 139.25 139.203 139.362C139.319 140.062 139.263 140.78 139.042 141.454C139.032 141.472 139.027 141.491 139.027 141.511C139.026 141.531 139.031 141.551 139.039 141.569C139.048 141.586 139.061 141.602 139.077 141.614C139.092 141.626 139.111 141.634 139.13 141.637C139.412 141.735 139.651 141.929 139.803 142.187C139.883 142.315 140.01 142.406 140.156 142.441C140.303 142.476 140.457 142.453 140.586 142.375C140.851 142.211 141.142 142.094 141.447 142.03C141.485 142.021 141.52 142.001 141.547 141.972C141.574 141.943 141.592 141.907 141.598 141.867C141.599 141.842 141.606 141.817 141.619 141.795C141.631 141.773 141.648 141.754 141.668 141.739C141.688 141.724 141.712 141.713 141.737 141.709C141.762 141.704 141.787 141.704 141.812 141.711C141.837 141.719 141.863 141.721 141.889 141.717C141.914 141.713 141.939 141.704 141.961 141.689C141.982 141.675 142 141.655 142.013 141.633C142.026 141.61 142.034 141.585 142.036 141.559C142.24 140.738 142.258 139.882 142.088 139.054C141.919 138.226 141.566 137.446 141.055 136.773C140.617 136.179 140.061 135.683 139.421 135.315C138.782 134.948 138.074 134.718 137.341 134.639C136.31 134.511 135.264 134.675 134.321 135.112C133.378 135.55 132.576 136.244 132.007 137.115C131.437 137.986 131.122 139 131.098 140.042C131.073 141.083 131.341 142.111 131.869 143.008L131.874 142.997Z" fill="#7484A0"/>
<path d="M141.066 136.757C141.035 136.888 140.878 136.951 140.602 136.94C140.435 136.7 140.163 136.684 139.793 136.888L138.296 137.74C138.273 137.752 138.248 137.758 138.223 137.758C138.197 137.758 138.172 137.752 138.15 137.74L136.992 137.244C136.954 137.231 136.921 137.205 136.9 137.17C136.879 137.136 136.871 137.095 136.877 137.055C136.926 136.453 136.905 135.848 136.814 135.251C136.815 135.191 136.802 135.133 136.775 135.079C136.749 135.026 136.709 134.981 136.661 134.946C136.613 134.912 136.557 134.889 136.498 134.881C136.439 134.873 136.38 134.88 136.324 134.9L136.194 134.926C136.082 134.941 135.98 134.997 135.907 135.083C135.835 135.169 135.797 135.279 135.802 135.392L135.761 137.092C135.761 137.147 135.746 137.201 135.717 137.248C135.689 137.295 135.648 137.334 135.599 137.359L134.488 137.976C134.458 137.999 134.421 138.011 134.383 138.011C134.346 138.011 134.309 137.999 134.279 137.976C133.903 137.662 133.111 136.977 132.594 136.966C132.505 136.966 132.417 136.985 132.336 137.022C132.255 137.06 132.183 137.115 132.126 137.183C132.069 137.251 132.027 137.332 132.004 137.418C131.982 137.505 131.978 137.595 131.994 137.683C132.099 138.237 133.1 138.781 133.559 139.032C133.597 139.052 133.629 139.081 133.653 139.117C133.677 139.153 133.691 139.194 133.695 139.236C133.872 140.659 133.644 141.51 133.011 141.789C132.391 141.998 132.109 142.338 132.161 142.835C132.166 142.854 132.166 142.874 132.163 142.893C132.16 142.912 132.152 142.93 132.141 142.946C132.131 142.963 132.117 142.977 132.1 142.987C132.084 142.998 132.066 143.005 132.046 143.008C131.995 143.018 131.942 143.018 131.89 143.008C131.362 142.111 131.094 141.083 131.119 140.042C131.143 139 131.458 137.986 132.028 137.115C132.597 136.244 133.399 135.55 134.342 135.112C135.285 134.675 136.331 134.511 137.362 134.639C138.095 134.718 138.803 134.948 139.442 135.315C140.082 135.683 140.638 136.179 141.076 136.773L141.066 136.757Z" fill="#C9D1DD"/>
<path d="M100.064 135.648L100.732 135.753C100.482 135.767 100.239 135.84 100.022 135.964C99.8047 136.088 99.6191 136.261 99.4796 136.469C98.8327 137.332 98.2172 138.211 97.6225 139.085C97.5416 139.212 97.5101 139.365 97.5338 139.514C97.5128 139.493 97.4873 139.477 97.4593 139.468C97.4313 139.459 97.4015 139.456 97.3723 139.46C97.3431 139.464 97.3152 139.475 97.2907 139.491C97.2663 139.508 97.2459 139.53 97.2313 139.555L89.782 138.985L87.3198 135.324L100.064 135.622V135.648Z" fill="#684D78"/>
<path d="M115.974 135.366L113.199 138.609C110.231 139.117 107.231 139.425 104.221 139.529H97.5494C97.5257 139.38 97.5573 139.228 97.6381 139.101C98.2328 138.211 98.8484 137.333 99.4952 136.485C99.6347 136.277 99.8203 136.104 100.037 135.98C100.255 135.856 100.498 135.783 100.747 135.769C105.738 135.845 110.819 135.716 115.99 135.382L115.974 135.366Z" fill="#8E81A8"/>
<path d="M141.066 136.757C141.576 137.43 141.929 138.21 142.099 139.038C142.269 139.867 142.251 140.723 142.046 141.543C142.045 141.569 142.037 141.594 142.024 141.617C142.011 141.64 141.993 141.659 141.971 141.674C141.949 141.688 141.925 141.698 141.899 141.701C141.873 141.705 141.847 141.703 141.822 141.695C141.798 141.689 141.772 141.688 141.747 141.693C141.722 141.698 141.699 141.708 141.678 141.723C141.658 141.738 141.641 141.757 141.629 141.779C141.617 141.802 141.61 141.826 141.608 141.852C141.602 141.891 141.584 141.927 141.557 141.956C141.53 141.985 141.495 142.005 141.457 142.014C141.152 142.078 140.861 142.195 140.596 142.359C140.467 142.437 140.313 142.461 140.167 142.425C140.02 142.39 139.893 142.299 139.814 142.171C139.661 141.914 139.423 141.719 139.141 141.622C139.121 141.618 139.103 141.61 139.087 141.598C139.071 141.586 139.058 141.571 139.05 141.553C139.041 141.535 139.037 141.515 139.037 141.495C139.038 141.475 139.043 141.456 139.052 141.438C139.274 140.764 139.329 140.047 139.214 139.346C139.198 139.234 139.151 139.129 139.078 139.043C139.03 138.993 138.998 138.929 138.99 138.86C138.981 138.815 138.989 138.769 139.011 138.729C139.033 138.689 139.067 138.657 139.11 138.64C139.599 138.413 140.072 138.154 140.528 137.866C140.805 137.657 140.831 137.343 140.601 136.925C140.878 136.925 141.034 136.872 141.066 136.741V136.757Z" fill="#8C9CB6"/>
<path d="M113.199 138.609L108.979 144.723C107.466 144.891 106.157 144.99 105.035 145.022C101.791 145.105 98.3476 145.065 94.7065 144.901C94.5118 144.885 94.328 144.804 94.1848 144.671L97.2261 139.566C97.2407 139.54 97.2611 139.518 97.2855 139.502C97.31 139.485 97.3379 139.475 97.3671 139.471C97.3963 139.467 97.4261 139.469 97.4541 139.479C97.4821 139.488 97.5076 139.504 97.5286 139.524H104.227C107.235 139.421 110.232 139.115 113.199 138.609Z" fill="#3F355A"/>
<path d="M97.2311 139.571L94.1898 144.676C93.7717 144.815 93.3282 144.86 92.8909 144.807L89.761 139.001L97.2102 139.571H97.2311Z" fill="#2B1D37"/>
<path d="M133.022 141.784C132.396 142.265 132.266 142.662 132.62 142.987C132.683 143.045 132.761 143.084 132.846 143.098C132.93 143.112 133.017 143.101 133.095 143.065C133.534 142.872 133.935 142.601 134.279 142.265C134.304 142.242 134.337 142.229 134.37 142.229C134.404 142.229 134.437 142.242 134.462 142.265L135.855 143.07C135.887 143.087 135.914 143.114 135.93 143.147C135.946 143.18 135.951 143.217 135.943 143.253C135.842 143.846 135.876 144.454 136.042 145.032C136.065 145.106 136.067 145.184 136.049 145.26C136.032 145.335 135.995 145.404 135.942 145.461C135.889 145.517 135.822 145.558 135.748 145.58C135.674 145.602 135.596 145.604 135.521 145.586C134.762 145.452 134.041 145.152 133.411 144.709C132.78 144.265 132.253 143.688 131.869 143.018C131.921 143.029 131.974 143.029 132.026 143.018C132.045 143.015 132.063 143.008 132.08 142.997C132.096 142.987 132.11 142.973 132.121 142.957C132.131 142.941 132.139 142.922 132.142 142.903C132.146 142.884 132.145 142.864 132.14 142.845C132.088 142.364 132.37 142.024 132.991 141.799L133.022 141.784Z" fill="#8C9CB6"/>
<path d="M142.526 142.709C142.526 142.746 142.526 142.793 142.459 142.866C141.949 143.974 141.133 144.912 140.108 145.569C139.082 146.225 137.89 146.573 136.673 146.57L135.745 146.502C135.51 146.339 135.541 146.115 135.839 145.837C135.868 145.807 135.903 145.784 135.942 145.77C135.98 145.755 136.022 145.75 136.063 145.754C138.804 145.858 140.749 144.704 141.9 142.291C141.92 142.247 141.952 142.209 141.993 142.184C142.034 142.159 142.082 142.147 142.13 142.15H142.36C142.379 142.148 142.399 142.15 142.418 142.156C142.437 142.162 142.455 142.172 142.469 142.185C142.484 142.199 142.496 142.215 142.504 142.233C142.512 142.251 142.516 142.271 142.516 142.291L142.553 142.709H142.526Z" fill="#4C5363"/>
<path d="M142.459 142.867C142.463 142.988 142.509 143.105 142.589 143.196C142.648 143.248 142.747 143.248 142.886 143.196L143.731 142.95C143.086 144.413 142.006 145.64 140.64 146.465C139.273 147.29 137.686 147.671 136.094 147.558C136.261 147.448 136.398 147.299 136.494 147.124C136.591 146.95 136.643 146.754 136.647 146.554C137.869 146.562 139.066 146.217 140.097 145.56C141.127 144.903 141.947 143.963 142.459 142.851V142.867Z" fill="#7484A0"/>
<path d="M131.128 148.51C131.041 148.474 130.944 148.474 130.857 148.51C130.821 148.524 130.79 148.548 130.766 148.578C130.742 148.609 130.727 148.645 130.721 148.683C130.718 148.706 130.709 148.728 130.697 148.748C130.684 148.768 130.667 148.785 130.647 148.798C130.628 148.81 130.606 148.819 130.582 148.823C130.559 148.826 130.535 148.825 130.513 148.819C130.452 148.814 130.392 148.828 130.341 148.861C130.082 149.024 129.879 149.263 129.762 149.546L129.182 148.693C128.026 147.207 126.358 146.207 124.506 145.887C122.653 145.568 120.748 145.952 119.163 146.965C117.577 147.977 116.425 149.546 115.931 151.365C115.437 153.183 115.636 155.121 116.491 156.801C116.514 156.853 116.524 156.91 116.522 156.967C116.52 157.025 116.504 157.081 116.477 157.131C116.45 157.182 116.412 157.225 116.365 157.258C116.319 157.292 116.265 157.314 116.209 157.324C115.897 157.383 115.612 157.54 115.395 157.773C114.36 155.98 113.931 153.9 114.169 151.842C114.411 150.146 115.115 148.55 116.204 147.229C117.449 145.739 119.133 144.684 121.014 144.214C122.895 143.744 124.877 143.884 126.673 144.613C128.582 145.323 130.166 146.707 131.128 148.505V148.51Z" fill="#C9D1DD"/>
<path d="M94.19 144.676C94.3333 144.809 94.517 144.891 94.7117 144.906C94.19 144.859 93.7675 145.231 93.4962 146.01L92.8911 144.807C93.3284 144.86 93.7719 144.815 94.19 144.676Z" fill="#684D78"/>
<path d="M108.984 144.729L106.595 148.625C105.311 148.719 104.039 148.805 102.776 148.882C101.506 148.963 100.231 148.945 98.963 148.829C97.4954 148.676 96.0174 148.465 94.5289 148.196L93.4856 146.01C93.7569 145.231 94.1585 144.859 94.701 144.906C98.3422 145.067 101.785 145.107 105.03 145.027C106.151 144.995 107.461 144.896 108.974 144.729H108.984Z" fill="#8E81A8"/>
<path d="M132.177 144.718C133.143 145.668 134.382 146.292 135.719 146.502L136.647 146.57C136.643 146.769 136.591 146.965 136.494 147.14C136.398 147.315 136.261 147.464 136.095 147.574C135.964 147.573 135.836 147.543 135.719 147.485C134.077 147.331 132.538 146.616 131.358 145.461C131.672 145.263 131.949 145.012 132.177 144.718Z" fill="#8C9CB6"/>
<path d="M129.183 148.678C129.04 148.703 128.906 148.761 128.79 148.847C128.674 148.933 128.58 149.045 128.515 149.174C126.72 147.114 124.578 146.298 122.088 146.727C121.141 146.886 120.239 147.249 119.445 147.791C118.651 148.333 117.983 149.04 117.487 149.865C116.016 152.522 116.169 155.085 117.946 157.554C117.968 157.591 118.003 157.619 118.045 157.632C118.087 157.645 118.131 157.641 118.17 157.622C118.723 157.44 119.235 157.152 119.678 156.774H127.55C127.564 156.774 127.579 156.77 127.591 156.763C127.603 156.755 127.613 156.744 127.62 156.731C127.626 156.718 127.629 156.703 127.628 156.689C127.626 156.674 127.621 156.661 127.612 156.649L125.969 154.442L127.138 153.772C127.17 153.755 127.199 153.73 127.22 153.7C127.242 153.671 127.257 153.636 127.263 153.6C127.264 153.579 127.272 153.559 127.287 153.543C127.301 153.528 127.32 153.518 127.341 153.516C127.686 153.403 128.006 153.225 128.285 152.993C128.526 152.799 128.78 152.625 129.047 152.47C129.308 152.313 129.569 152.145 129.814 151.947C130.11 153.359 129.948 154.829 129.351 156.142C128.753 157.455 127.753 158.542 126.495 159.243C125.237 159.945 123.789 160.224 122.361 160.041C120.934 159.857 119.602 159.22 118.562 158.223C118.551 158.21 118.538 158.2 118.523 158.192C118.509 158.185 118.492 158.181 118.476 158.181C118.459 158.181 118.443 158.185 118.428 158.192C118.413 158.2 118.4 158.21 118.39 158.223L118.092 158.678C118.079 158.695 118.07 158.713 118.064 158.733C118.059 158.753 118.057 158.774 118.06 158.795C118.063 158.816 118.07 158.835 118.081 158.853C118.092 158.871 118.106 158.886 118.124 158.898C119.456 160.129 121.186 160.84 122.998 160.899C124.809 160.959 126.581 160.364 127.992 159.223C129.403 158.082 130.357 156.471 130.682 154.683C131.007 152.895 130.68 151.05 129.762 149.483C129.88 149.2 130.082 148.961 130.341 148.798C130.392 148.766 130.452 148.751 130.513 148.756C130.535 148.762 130.559 148.764 130.582 148.76C130.606 148.756 130.628 148.748 130.647 148.735C130.667 148.722 130.684 148.705 130.697 148.685C130.709 148.666 130.718 148.643 130.721 148.62C130.727 148.582 130.742 148.546 130.766 148.516C130.79 148.485 130.821 148.462 130.857 148.447C130.944 148.411 131.042 148.411 131.128 148.447C131.795 149.583 132.206 150.852 132.331 152.164C132.456 153.476 132.293 154.8 131.853 156.042C131.521 157.08 131.001 158.048 130.32 158.898C127.792 161.628 124.822 162.661 121.41 161.994C120.157 161.761 118.971 161.257 117.932 160.517C116.893 159.777 116.028 158.82 115.395 157.711C115.612 157.478 115.897 157.32 116.209 157.261C116.265 157.251 116.319 157.229 116.365 157.196C116.412 157.162 116.45 157.119 116.477 157.068C116.505 157.018 116.52 156.962 116.522 156.905C116.525 156.847 116.514 156.79 116.491 156.738C115.637 155.059 115.437 153.121 115.931 151.302C116.425 149.483 117.577 147.915 119.163 146.902C120.748 145.889 122.653 145.505 124.506 145.825C126.358 146.144 128.026 147.145 129.183 148.631V148.678Z" fill="#8C9CB6"/>
<path d="M128.515 149.174C129.147 150.004 129.59 150.963 129.814 151.983C129.568 152.166 129.292 152.334 129.047 152.506C128.78 152.661 128.526 152.836 128.285 153.029C128.006 153.262 127.686 153.439 127.341 153.552C127.32 153.555 127.301 153.565 127.287 153.58C127.272 153.595 127.264 153.615 127.263 153.636C127.257 153.673 127.242 153.707 127.22 153.737C127.199 153.767 127.17 153.792 127.138 153.809L125.969 154.478L124.185 152.051C124.105 151.947 124.131 151.894 124.263 151.894H125.797C125.82 151.894 125.843 151.887 125.863 151.874C125.883 151.862 125.899 151.844 125.909 151.823C125.92 151.802 125.925 151.779 125.923 151.756C125.922 151.732 125.914 151.71 125.901 151.69L123.429 148.029C123.422 148.017 123.412 148.007 123.4 148C123.388 147.993 123.375 147.99 123.361 147.99C123.347 147.99 123.334 147.993 123.322 148C123.31 148.007 123.3 148.017 123.293 148.029L120.523 151.69C120.434 151.805 120.466 151.863 120.606 151.863H122.171C122.192 151.863 122.212 151.869 122.229 151.88C122.247 151.891 122.261 151.906 122.271 151.924C122.28 151.942 122.285 151.963 122.284 151.983C122.283 152.004 122.276 152.024 122.265 152.041L119.203 156.581C119.192 156.594 119.184 156.609 119.179 156.626C119.175 156.642 119.175 156.66 119.178 156.676C119.182 156.693 119.189 156.709 119.2 156.722C119.21 156.736 119.224 156.746 119.24 156.754C119.384 156.824 119.549 156.839 119.704 156.795C119.261 157.173 118.749 157.461 118.196 157.643C118.157 157.662 118.113 157.665 118.071 157.653C118.029 157.64 117.994 157.612 117.972 157.575C116.195 155.106 116.042 152.543 117.513 149.886C118.009 149.061 118.677 148.354 119.471 147.812C120.265 147.27 121.167 146.907 122.114 146.748C124.608 146.322 126.75 147.138 128.541 149.195L128.515 149.174Z" fill="#C9D1DD"/>
<path d="M125.969 154.431L127.612 156.638C127.621 156.65 127.626 156.664 127.628 156.678C127.629 156.693 127.626 156.708 127.62 156.721C127.613 156.734 127.603 156.745 127.591 156.752C127.578 156.76 127.564 156.764 127.55 156.764H119.678C119.523 156.807 119.358 156.792 119.214 156.722C119.198 156.715 119.184 156.704 119.174 156.691C119.163 156.677 119.156 156.662 119.152 156.645C119.148 156.628 119.149 156.611 119.153 156.594C119.158 156.578 119.166 156.562 119.177 156.549L122.239 152.009C122.25 151.992 122.257 151.972 122.258 151.952C122.259 151.931 122.254 151.911 122.244 151.893C122.235 151.875 122.221 151.859 122.203 151.849C122.186 151.838 122.166 151.832 122.145 151.832H120.58C120.44 151.832 120.408 151.774 120.497 151.659L123.267 147.998C123.274 147.986 123.284 147.976 123.296 147.969C123.307 147.962 123.321 147.958 123.335 147.958C123.348 147.958 123.362 147.962 123.374 147.969C123.386 147.976 123.396 147.986 123.403 147.998L125.875 151.659C125.888 151.678 125.896 151.701 125.897 151.724C125.899 151.748 125.894 151.771 125.883 151.792C125.873 151.813 125.856 151.83 125.837 151.843C125.817 151.855 125.794 151.862 125.771 151.863H124.237C124.108 151.863 124.082 151.915 124.159 152.02L125.943 154.447L125.969 154.431Z" fill="#7484A0"/>
<path d="M94.5291 148.196C96.021 148.468 97.499 148.679 98.9631 148.829C100.231 148.945 101.506 148.963 102.776 148.882C104.039 148.805 105.312 148.719 106.595 148.625L99.9282 160.624L99.7665 160.404C99.2726 158.922 98.5771 157.161 97.6798 155.122C96.6574 152.831 95.6141 150.522 94.5499 148.196H94.5291Z" fill="#3F355A"/>
<path d="M129.182 148.677L129.762 149.53C130.68 151.097 131.007 152.942 130.682 154.73C130.357 156.518 129.402 158.129 127.992 159.27C126.581 160.411 124.809 161.006 122.997 160.946C121.186 160.887 119.456 160.176 118.123 158.945C118.106 158.933 118.092 158.918 118.081 158.9C118.07 158.882 118.063 158.863 118.06 158.842C118.057 158.821 118.059 158.8 118.064 158.78C118.07 158.76 118.079 158.742 118.092 158.725L118.389 158.27C118.4 158.257 118.413 158.247 118.428 158.239C118.443 158.232 118.459 158.228 118.476 158.228C118.492 158.228 118.508 158.232 118.523 158.239C118.538 158.247 118.551 158.257 118.562 158.27C119.602 159.267 120.933 159.904 122.361 160.088C123.789 160.271 125.237 159.992 126.495 159.29C127.753 158.589 128.753 157.502 129.35 156.189C129.948 154.876 130.11 153.406 129.814 151.994C129.59 150.974 129.147 150.015 128.515 149.185C128.58 149.056 128.674 148.944 128.79 148.857C128.906 148.771 129.04 148.713 129.182 148.688V148.677Z" fill="#7484A0"/>
<path d="M181.405 160.75C181.374 161.393 181.327 162.021 181.254 162.628C181.181 163.234 181.118 163.883 181.056 164.5C180.76 167.6 180.459 170.703 180.153 173.81C180.039 174.996 179.865 176.265 179.632 177.618C179.413 178.926 179.204 180.192 179.016 181.405L176.319 183.021C175.992 183.213 175.867 183.124 175.944 182.755C176.058 182.232 176.152 181.677 176.215 181.185C176.314 180.422 176.392 179.893 176.45 179.59C177.131 175.904 177.783 172.356 178.406 168.946C178.787 166.805 179.033 164.642 179.141 162.471L181.426 160.776L181.405 160.75Z" fill="#3A4465"/>
<path d="M130.935 52.0593C130.263 53.0414 129.414 53.8893 128.431 54.5595C124.55 57.0902 120.44 59.2511 116.157 61.0139C114.446 61.265 112.761 61.5614 111.102 61.9031L110.267 62.1123C109.736 62.2357 109.195 62.3144 108.65 62.3477C108.086 62.3985 107.528 62.4983 106.981 62.6458C106.508 62.7701 106.027 62.8592 105.541 62.9126L104.065 63.0538C104.054 63.0756 104.045 63.0983 104.039 63.1218C104.039 63.1218 104.039 63.1532 104.002 63.1584C102.263 63.2561 100.539 63.3171 98.8275 63.3415C98.7428 63.3547 98.6566 63.3547 98.5719 63.3415C98.4733 63.3144 98.3716 63.3003 98.2694 63.2997C97.0278 63.3206 95.7393 63.2857 94.4039 63.1951C94.1691 63.1951 93.4441 63.0904 92.239 62.9388C91.5125 62.8451 90.7805 62.8014 90.0481 62.808C88.2298 61.7079 86.6221 60.2908 85.301 58.6236C85.5487 58.6729 85.7914 58.7447 86.0261 58.838C86.2569 58.9338 86.4962 59.0073 86.7408 59.0577C87.1007 59.1309 87.445 59.2094 87.7841 59.3035C88.1274 59.3965 88.4758 59.4699 88.8274 59.5232C90.3982 59.7645 91.9854 59.8816 93.5745 59.8737C96.8713 59.8423 99.4396 59.722 101.279 59.5128C102.182 59.4134 103.053 59.3192 103.888 59.2408C104.325 59.1961 104.758 59.1139 105.181 58.9949C105.607 58.8721 106.041 58.7795 106.48 58.7177C107.153 58.6254 107.816 58.466 108.457 58.2417C108.523 58.2182 108.595 58.2182 108.661 58.2417C108.725 58.2626 108.794 58.2626 108.859 58.2417C109.485 58.0848 110.127 57.9384 110.784 57.8076C111.305 57.6978 111.827 57.5618 112.349 57.3996C112.75 57.2741 113.173 57.295 113.569 57.1852C114.905 56.8156 116.221 56.418 117.518 55.9926C117.848 55.8872 118.187 55.8153 118.53 55.7782C118.619 55.7704 118.702 55.7358 118.77 55.6788L118.869 55.6003C118.9 55.5779 118.936 55.5636 118.974 55.5585C119.478 55.4721 119.962 55.2949 120.403 55.0354C120.458 55.0031 120.522 54.9885 120.586 54.9936H120.659C120.759 54.8851 120.886 54.8059 121.028 54.7644C121.169 54.723 121.319 54.7208 121.462 54.7582C121.505 54.7681 121.55 54.7675 121.592 54.7566C121.635 54.7457 121.674 54.7247 121.707 54.6955C122.04 54.4215 122.431 54.2282 122.85 54.1306C122.961 54.1022 123.059 54.0356 123.126 53.9423C123.172 53.8732 123.233 53.8152 123.305 53.7727C123.376 53.7302 123.456 53.7041 123.538 53.6964C123.658 53.6854 123.772 53.64 123.867 53.5657C124.032 53.4289 124.207 53.3031 124.389 53.1891C124.577 53.0756 124.753 52.9404 124.91 52.7863C125.564 52.1447 126.228 51.5048 126.903 50.8667C126.946 50.8269 126.998 50.7982 127.054 50.783H127.132C127.16 50.7761 127.185 50.7638 127.208 50.7467C127.23 50.7296 127.249 50.7082 127.263 50.6836C127.312 50.6055 127.387 50.5467 127.474 50.5172C127.562 50.4877 127.656 50.4892 127.743 50.5215C128.911 50.745 129.994 51.2881 130.873 52.0907L130.935 52.0593Z" fill="#80D2AC"/>
<path d="M59.312 134.424C59.0512 137.49 58.9034 139.817 58.8686 141.407C58.718 148.681 59.0247 155.957 59.7867 163.192C59.7442 164.358 59.7721 165.524 59.8702 166.686C59.9529 167.474 59.9529 168.268 59.8702 169.056C59.7601 169.846 59.6086 170.63 59.4163 171.404C58.4356 175.536 57.4201 179.686 56.3699 183.853L40.5481 171.729L35.3315 167.717C36.9035 165.624 37.9885 164.075 38.5867 163.067C39.6665 161.278 40.7515 159.489 41.8261 157.695C42.2017 157.078 42.7182 156.361 43.1459 155.686C43.3285 155.394 43.5163 155.132 43.6676 154.902C46.3941 151.415 49.0024 147.879 51.4924 144.294C52.8383 142.349 53.8381 140.922 54.4919 140.016L57.9766 135.125C58.185 134.83 58.3599 134.513 58.4982 134.179C58.5103 134.148 58.5301 134.121 58.5556 134.1C58.5811 134.079 58.6115 134.065 58.6439 134.059C58.6763 134.054 58.7097 134.056 58.7408 134.067C58.7719 134.078 58.7997 134.096 58.8216 134.121C59.0407 134.362 59.2025 134.456 59.3068 134.414L59.312 134.424Z" fill="#80D2AC"/>
<path d="M67.7003 141.747C68.222 142.155 68.6811 142.558 69.1505 142.961C69.629 143.374 70.0852 143.812 70.5173 144.273C71.5345 145.356 72.4735 146.392 73.3446 147.37C76.2361 150.657 78.7846 154.233 80.9504 158.04C83.645 162.681 86.083 167.467 88.2535 172.377C90.8305 178.305 93.5362 184.47 96.3705 190.872C96.6104 191.395 96.8347 191.965 97.0434 192.53C97.3929 193.466 97.9459 194.319 98.3058 195.213C99.2018 197.415 100.248 199.552 101.436 201.61L101.566 218.301C101.567 218.319 101.563 218.337 101.554 218.352C101.545 218.368 101.531 218.38 101.515 218.389C101.5 218.397 101.482 218.4 101.464 218.399C101.446 218.397 101.429 218.39 101.415 218.379L95.7967 214.064L69.1923 193.691L67.0639 192.044L66.4692 171.875C66.4708 171.83 66.458 171.786 66.4327 171.749C66.4232 171.72 66.4232 171.689 66.4327 171.66C66.4327 170.339 66.3927 168.97 66.3127 167.554C66.4799 167.231 66.6263 166.897 66.7509 166.555C66.8708 166.22 66.9257 165.865 66.9126 165.509C66.7353 158.912 66.8135 152.578 67.1474 146.507C67.2531 144.917 67.4411 143.333 67.7108 141.763L67.7003 141.747Z" fill="#80D2AC"/>
<path d="M177.049 163.951L174.603 165.808L170.581 168.763L169.538 169.506L153.57 181.316C153.549 180.952 153.493 180.592 153.403 180.239C153.317 179.909 153.258 179.573 153.226 179.234C153.189 178.758 153.059 178.345 152.975 177.864C152.787 176.755 152.631 175.699 152.506 174.694C152.158 171.821 151.81 168.637 151.462 165.143C151.348 163.972 151.462 162.805 151.28 161.67C151.092 160.452 151.113 159.191 151.04 157.936C150.956 156.367 150.821 154.845 150.643 153.343C151.989 152.679 153.252 151.983 154.493 151.251C156.034 150.32 156.954 149.771 157.253 149.604C159.073 148.557 160.904 147.569 162.772 146.418C163.638 145.895 164.561 145.372 165.537 144.807C165.567 144.791 165.602 144.787 165.634 144.796C165.667 144.805 165.696 144.826 165.714 144.854C167.661 147.734 169.545 150.664 171.363 153.641C172.819 156.016 174.222 158.663 175.589 161.153L176.272 162.277C176.59 162.805 176.843 163.368 177.029 163.956L177.049 163.951Z" fill="#80D2AC"/>
<path d="M136.084 161.001C136.723 165.864 137.794 170.66 139.282 175.332C139.854 177.252 140.578 179.124 141.447 180.929C141.867 181.76 142.38 182.541 142.975 183.257C143.544 183.942 143.982 184.062 144.295 183.617C144.299 183.857 144.386 184.088 144.54 184.271C144.593 184.332 144.623 184.41 144.623 184.491V185.84C144.624 185.875 144.633 185.908 144.649 185.938C144.666 185.968 144.689 185.994 144.717 186.013L144.785 186.06C144.819 186.082 144.847 186.114 144.864 186.151C144.882 186.188 144.889 186.229 144.884 186.269C144.838 186.73 144.889 187.195 145.036 187.634L141.718 190.098L114.592 210.178L102.766 218.913C102.755 218.921 102.743 218.925 102.729 218.926C102.716 218.927 102.703 218.924 102.691 218.918C102.68 218.913 102.67 218.904 102.663 218.893C102.656 218.881 102.652 218.869 102.651 218.855L101.67 174.338L101.968 174.38L102.083 175.045C102.097 175.132 102.141 175.212 102.208 175.27C102.282 175.332 102.338 175.414 102.368 175.506C102.398 175.599 102.403 175.698 102.38 175.793C102.368 175.841 102.37 175.893 102.387 175.94C102.403 175.988 102.434 176.029 102.474 176.059C102.542 176.116 102.593 176.19 102.623 176.274C102.652 176.358 102.658 176.448 102.641 176.535C102.631 176.595 102.636 176.657 102.654 176.715C102.672 176.773 102.703 176.826 102.745 176.87C102.834 176.972 102.897 177.094 102.928 177.226C102.954 177.313 103.002 177.393 103.068 177.456C103.402 177.749 103.444 178.141 103.767 178.45C104.649 179.302 105.395 180.27 106.522 180.84C107.361 181.346 108.283 181.7 109.245 181.886C110.059 182.034 110.885 182.114 111.712 182.127C114.566 181.959 117.487 180.861 119.229 178.591C119.948 177.676 120.552 176.677 121.029 175.615C121.212 175.196 121.102 174.872 121.352 174.469C121.4 174.398 121.425 174.314 121.425 174.229V171.195C121.423 171.097 121.384 171.004 121.316 170.933L121.248 170.865C121.216 170.836 121.191 170.799 121.177 170.758C121.162 170.717 121.158 170.673 121.165 170.63C121.183 170.513 121.165 170.392 121.113 170.285C121.061 170.179 120.977 170.091 120.873 170.034L120.273 167.643C121.591 167.044 122.914 166.453 124.242 165.87L128.212 164.149C128.26 164.127 128.311 164.115 128.363 164.113C128.448 164.11 128.53 164.087 128.603 164.045L129.647 163.522C129.883 163.408 130.129 163.317 130.382 163.25C130.668 163.176 130.935 163.047 131.17 162.868C131.2 162.845 131.235 162.829 131.272 162.82C131.308 162.811 131.347 162.81 131.384 162.816C131.718 162.868 131.822 162.659 132.093 162.549C132.41 162.421 132.713 162.26 132.996 162.068C133.026 162.047 133.06 162.033 133.096 162.026C133.132 162.019 133.169 162.019 133.204 162.026C133.564 162.115 133.637 161.874 133.909 161.77C134.223 161.645 134.523 161.489 134.806 161.304C134.881 161.254 134.972 161.234 135.062 161.246C135.547 161.314 135.515 160.859 136.105 161.032L136.084 161.001Z" fill="#80D2AC"/>
<path d="M120.257 167.612L120.857 170.003C121.106 172.304 120.466 174.613 119.068 176.456C117.67 178.298 115.621 179.532 113.343 179.905C111.064 180.278 108.73 179.76 106.82 178.459C104.911 177.158 103.572 175.172 103.079 172.911C102.597 170.696 102.958 168.381 104.091 166.42C105.708 163.944 107.852 162.509 110.523 162.115C112.251 161.842 114.021 162.082 115.614 162.805C117.708 163.768 119.365 165.483 120.257 167.612ZM119.068 171.038C119.072 169.562 118.639 168.118 117.824 166.888C117.009 165.659 115.848 164.699 114.489 164.132C113.13 163.564 111.633 163.414 110.189 163.7C108.744 163.986 107.417 164.695 106.374 165.738C105.332 166.78 104.622 168.11 104.334 169.558C104.046 171.005 104.193 172.506 104.756 173.87C105.319 175.234 106.273 176.4 107.498 177.22C108.722 178.04 110.162 178.477 111.634 178.476C113.603 178.475 115.49 177.691 116.883 176.297C118.277 174.903 119.062 173.012 119.068 171.038Z" fill="#8C9CB6"/>
<path d="M179.12 162.444C179.02 164.624 178.781 166.796 178.406 168.946C177.801 172.377 177.159 175.927 176.481 179.595C176.423 179.899 176.345 180.427 176.246 181.191C176.184 181.714 176.09 182.237 175.975 182.76C175.895 183.133 176.02 183.222 176.35 183.026L179.047 181.41C178.933 182.184 178.823 182.911 178.714 183.591C178.594 184.311 178.387 185.014 178.098 185.684C177.622 186.796 177.135 187.954 176.637 189.157C176.002 189.893 175.196 190.461 174.29 190.809C175.654 187.291 176.024 183.463 175.359 179.747C174.99 177.719 174.269 175.772 173.231 173.993L174.603 165.808L177.049 163.961L179.136 162.455L179.12 162.444Z" fill="#1E263E"/>
<path d="M131.676 51.4423L130.935 52.0595C130.056 51.2569 128.973 50.7138 127.805 50.4903C127.719 50.458 127.624 50.4565 127.537 50.486C127.449 50.5155 127.375 50.5743 127.325 50.6525C127.311 50.677 127.293 50.6984 127.27 50.7155C127.248 50.7326 127.222 50.7449 127.195 50.7518H127.117C127.06 50.767 127.008 50.7957 126.965 50.8355C126.287 51.4736 125.623 52.1135 124.973 52.7551C124.815 52.9093 124.64 53.0444 124.451 53.1579C124.269 53.2719 124.095 53.3977 123.929 53.5345C123.835 53.6088 123.721 53.6542 123.601 53.6652C123.518 53.6729 123.438 53.699 123.367 53.7415C123.296 53.784 123.235 53.842 123.189 53.9111C123.121 54.0044 123.023 54.071 122.912 54.0994C122.493 54.197 122.102 54.3903 121.77 54.6643C121.737 54.6935 121.697 54.7145 121.655 54.7254C121.612 54.7363 121.567 54.7369 121.525 54.727C121.382 54.6896 121.232 54.6918 121.09 54.7332C120.949 54.7747 120.821 54.8539 120.721 54.9624H120.648C120.584 54.9573 120.521 54.9719 120.466 55.0043C120.025 55.2637 119.54 55.4409 119.036 55.5273C118.999 55.5324 118.963 55.5467 118.932 55.5691L118.833 55.6476C118.765 55.7046 118.681 55.7393 118.593 55.747C118.249 55.7842 117.91 55.856 117.581 55.9614C116.28 56.3869 114.964 56.7844 113.632 57.154C113.235 57.2638 112.813 57.2429 112.411 57.3684C111.89 57.5306 111.368 57.6666 110.846 57.7764C110.189 57.9072 109.547 58.0536 108.921 58.2106C108.857 58.2314 108.788 58.2314 108.723 58.2106C108.657 58.187 108.585 58.187 108.52 58.2106C107.878 58.4348 107.216 58.5942 106.543 58.6865C106.104 58.7483 105.67 58.8409 105.244 58.9638C104.82 59.0827 104.387 59.1649 103.95 59.2096C103.11 59.288 102.239 59.3822 101.342 59.4816C99.5055 59.6908 96.9372 59.8111 93.6369 59.8425C92.0478 59.8505 90.4606 59.7333 88.8898 59.492C88.5382 59.4387 88.1899 59.3653 87.8465 59.2724C87.5074 59.1782 87.1631 59.0997 86.8032 59.0265C86.5586 58.9761 86.3193 58.9026 86.0885 58.8068C85.8538 58.7135 85.6111 58.6417 85.3634 58.5924C84.3944 57.4306 83.6672 56.0861 83.2247 54.6381L83.1934 52.9434C83.7773 51.8541 84.6513 50.9487 85.7182 50.3282C88.1016 48.9819 90.6882 48.0349 93.3761 47.5246C97.876 46.4973 102.471 45.9434 107.085 45.8718C113.199 45.8351 119.662 47.3206 125.562 49.4599C127.576 50.1922 129.631 50.7675 131.681 51.4423H131.676Z" fill="#B0FADA"/>
<path d="M57.2725 72.6362C57.6301 73.3206 57.8499 74.0688 57.9194 74.8382C58.0389 75.4307 58.2501 76.0007 58.5454 76.5277C55.4833 81.1567 53.2871 86.2303 51.4509 91.4556C51.4035 91.6538 51.3317 91.8454 51.237 92.0257C47.9332 96.6725 46.1141 102.215 46.0204 107.921C45.9787 109.579 46.2187 113.445 47.5854 114.569C48.2323 115.092 49.0565 114.789 49.7607 114.454L57.3403 121.149L51.1222 117.242L41.4873 111.52C41.4537 111.502 41.4279 111.473 41.4144 111.437C41.401 111.401 41.4009 111.362 41.4142 111.326L41.8889 109.93C44.8624 101.749 47.9297 93.6577 51.4613 85.723C52.7167 83.1809 53.7601 81.1288 54.5912 79.5666C55.4224 78.0044 56.4414 76.2609 57.6481 74.3361C57.6706 74.2998 57.6854 74.2592 57.6917 74.217C57.698 74.1747 57.6956 74.1316 57.6846 74.0903L57.2673 72.6257L57.2725 72.6362Z" fill="#B0FADA"/>
<path d="M160.388 77.1136L170.581 99.4532L172.448 103.481L174.775 108.434C174.785 108.449 174.791 108.466 174.793 108.484C174.795 108.501 174.793 108.519 174.787 108.536C174.781 108.553 174.771 108.568 174.758 108.58C174.745 108.592 174.729 108.601 174.712 108.607L171.436 110.014L169.798 110.73L168.39 111.316L166.063 107.33L167.409 106.399C167.452 106.371 167.485 106.33 167.505 106.283C167.525 106.235 167.529 106.183 167.519 106.133C165.715 97.4265 163.014 88.9319 159.459 80.7854C159.407 80.6688 159.396 80.5378 159.428 80.4141L160.195 77.1607C160.2 77.1386 160.212 77.119 160.231 77.1055C160.249 77.0921 160.271 77.0856 160.294 77.0875C160.32 77.0914 160.344 77.1003 160.367 77.1136H160.388Z" fill="#B0FADA"/>
<path d="M155.797 118.492L168.213 138.086L174.832 148.489L179.079 155.2L181.65 159.269C181.728 159.489 181.854 159.688 182.021 159.85C182.056 159.88 182.084 159.917 182.101 159.96C182.119 160.003 182.125 160.049 182.121 160.095C182.116 160.141 182.1 160.185 182.075 160.224C182.049 160.262 182.014 160.294 181.974 160.316L181.405 160.744L179.12 162.439L177.034 163.946C176.849 163.358 176.595 162.794 176.277 162.267L175.594 161.142C174.227 158.652 172.824 156.006 171.369 153.631C169.546 150.657 167.663 147.727 165.719 144.844C165.701 144.815 165.672 144.794 165.64 144.785C165.607 144.777 165.572 144.781 165.542 144.797C164.566 145.32 163.643 145.874 162.777 146.408C160.889 147.558 159.078 148.557 157.258 149.593C156.955 149.76 156.035 150.31 154.498 151.241C153.278 151.978 151.994 152.674 150.649 153.333C150.365 151.238 150.289 149.119 150.419 147.009C150.419 146.685 150.586 146.324 150.596 145.963C150.583 144.716 150.66 143.47 150.826 142.234C150.967 141.412 150.868 140.581 151.029 139.765C151.228 138.719 151.144 137.73 151.332 136.658C151.457 135.92 151.41 135.199 151.561 134.456C151.713 133.713 151.848 132.887 151.947 132.034C152.094 131.47 152.188 130.894 152.229 130.313C152.212 130.035 152.257 129.756 152.36 129.497C152.487 129.152 152.535 128.782 152.5 128.415C152.491 128.311 152.509 128.206 152.553 128.111C152.667 127.87 152.734 127.609 152.751 127.342C152.751 126.819 153.012 126.417 153.032 125.888C153.04 125.682 153.075 125.478 153.137 125.282C153.317 124.686 153.467 124.082 153.585 123.472C153.605 123.361 153.648 123.256 153.711 123.163C153.762 123.09 153.789 123.002 153.789 122.912C153.788 122.736 153.849 122.566 153.961 122.431C154.016 122.356 154.05 122.267 154.06 122.175C154.092 121.942 154.166 121.716 154.279 121.51C154.78 120.527 155.281 119.519 155.782 118.487L155.797 118.492Z" fill="#B0FADA"/>
<path d="M58.1278 121.74L60.9187 123.54C60.2614 126.603 59.7876 129.704 59.4998 132.824L59.312 134.393C59.2077 134.435 59.046 134.341 58.8269 134.1C58.8049 134.076 58.7771 134.057 58.746 134.046C58.7149 134.035 58.6816 134.033 58.6491 134.039C58.6167 134.044 58.5863 134.058 58.5608 134.079C58.5353 134.1 58.5156 134.127 58.5034 134.158C58.3652 134.492 58.1902 134.809 57.9818 135.104L54.4971 139.995C53.8468 140.902 52.847 142.328 51.4976 144.274C49.0145 147.851 46.4063 151.387 43.6728 154.881C43.4954 155.111 43.3076 155.373 43.1511 155.666C42.7234 156.34 42.207 157.057 41.8314 157.674C40.7568 159.468 39.6717 161.257 38.5919 163.046C37.9902 164.04 36.9052 165.59 35.3368 167.696L34.4291 166.995C34.3971 166.972 34.375 166.937 34.3673 166.899C34.3596 166.86 34.3667 166.819 34.3874 166.786L57.4758 123.032L58.1383 121.74H58.1278Z" fill="#B0FADA"/>
<path d="M138.953 125.402L137.685 132.202C136.579 132.072 135.457 132.18 134.395 132.518C133.333 132.857 132.354 133.417 131.525 134.163C130.785 134.852 130.154 135.649 129.652 136.527C129.178 137.156 128.778 137.837 128.457 138.557C128.343 138.829 128.421 139.054 128.233 139.273C128.173 139.342 128.137 139.428 128.129 139.519C128.105 139.801 128.058 140.081 127.988 140.356C127.857 140.937 127.822 141.536 127.883 142.129C127.92 142.589 128.176 142.898 128.118 143.358C128.112 143.409 128.117 143.46 128.133 143.508C128.15 143.556 128.177 143.599 128.212 143.635C128.268 143.694 128.312 143.764 128.341 143.841C128.369 143.917 128.383 143.998 128.379 144.08C128.375 144.175 128.397 144.269 128.442 144.352C128.588 144.608 128.723 144.875 128.849 145.147C128.984 145.418 129.16 145.667 129.37 145.885C129.932 146.543 130.572 147.132 131.274 147.637C131.965 148.056 132.702 148.393 133.47 148.641C133.605 148.688 133.746 148.714 133.888 148.72C134.284 148.72 134.524 148.934 134.9 148.976C135.141 148.989 135.383 148.989 135.625 148.976C135.383 152.992 135.542 157.022 136.1 161.006C135.531 160.833 135.578 161.288 135.056 161.22C134.967 161.208 134.876 161.228 134.801 161.278C134.518 161.463 134.217 161.619 133.903 161.744C133.632 161.848 133.559 162.089 133.199 162C133.163 161.993 133.126 161.993 133.091 162C133.055 162.007 133.021 162.021 132.99 162.042C132.708 162.234 132.405 162.395 132.088 162.523C131.817 162.633 131.712 162.842 131.379 162.79C131.341 162.784 131.303 162.785 131.266 162.794C131.23 162.803 131.195 162.819 131.165 162.842C130.93 163.021 130.662 163.15 130.377 163.224C130.124 163.291 129.878 163.382 129.641 163.496L128.598 164.019C128.525 164.061 128.442 164.084 128.358 164.087C128.306 164.089 128.254 164.101 128.207 164.123L124.237 165.844C122.912 166.427 121.589 167.018 120.267 167.617C119.375 165.488 117.718 163.773 115.625 162.811C114.031 162.087 112.261 161.847 110.533 162.12C107.862 162.518 105.718 163.953 104.101 166.425C103.873 166.547 103.698 166.75 103.611 166.995C103.585 167.084 103.538 167.167 103.475 167.236C103.162 167.577 102.945 167.996 102.844 168.449C102.812 168.61 102.748 168.763 102.656 168.899C102.609 168.966 102.585 169.047 102.588 169.129C102.602 169.318 102.545 169.504 102.427 169.652C102.37 169.72 102.339 169.805 102.338 169.893L102.296 170.86C102.295 170.949 102.273 171.037 102.234 171.117C102.104 171.368 102.07 171.658 102.14 171.933C102.311 172.756 102.374 173.598 102.328 174.438C102.328 174.543 102.27 174.569 102.182 174.522L101.962 174.412L101.665 174.37L101.582 169.338L101.389 162.763C101.389 162.575 101.441 162.554 101.556 162.706L101.702 162.889C101.79 162.999 101.869 162.994 101.947 162.889C109.142 152.278 117.705 142.668 127.414 134.309C131.071 131.11 134.929 128.149 138.963 125.444M114.169 151.842C113.776 152.772 113.486 153.742 113.303 154.735C113.029 156.559 113.484 158.418 114.571 159.908C115.312 160.988 116.287 161.888 117.422 162.54C118.557 163.191 119.823 163.579 121.128 163.674C121.436 163.71 121.738 163.752 122.036 163.804C122.354 163.864 122.681 163.855 122.996 163.778C123.207 163.725 123.421 163.685 123.637 163.658C124.291 163.582 124.933 163.431 125.552 163.208C126.054 163.018 126.543 162.796 127.018 162.544C127.489 162.297 127.917 161.976 128.285 161.592C128.796 161.058 129.344 160.509 129.928 159.944C130.15 159.661 130.286 159.319 130.32 158.961C131.001 158.111 131.521 157.143 131.853 156.105C132.293 154.863 132.456 153.539 132.331 152.227C132.205 150.915 131.795 149.646 131.128 148.51C130.166 146.712 128.582 145.328 126.673 144.619C124.876 143.889 122.895 143.749 121.014 144.219C119.133 144.689 117.449 145.745 116.204 147.234C115.115 148.555 114.411 150.151 114.169 151.847V151.842Z" fill="#B0FADA"/>
<path d="M69.7609 130.115C74.5304 133.776 79.0461 137.759 83.2769 142.035C89.0256 147.855 94.5221 153.978 99.7664 160.405L99.9281 160.624C100.278 161.084 101.107 161.869 101.107 162.45C101.107 164.688 101.133 166.929 101.185 169.171L101.457 201.6C100.268 199.542 99.2227 197.405 98.3267 195.203C97.9667 194.309 97.4138 193.456 97.0643 192.52C96.8556 191.955 96.6313 191.401 96.3913 190.862C93.5535 184.456 90.8479 178.291 88.2744 172.367C86.1039 167.457 83.6658 162.671 80.9712 158.03C78.8054 154.222 76.2569 150.647 73.3655 147.36C72.4943 146.382 71.5553 145.346 70.5381 144.263C70.106 143.802 69.6498 143.363 69.1714 142.95C68.7019 142.548 68.222 142.145 67.7212 141.737L68.1176 139.603L69.7817 130.099L69.7609 130.115Z" fill="#B0FADA"/>
<path d="M59.7869 163.192L61.1327 173.334C61.1355 173.354 61.1429 173.373 61.1546 173.39C61.1662 173.406 61.1816 173.42 61.1996 173.429C61.2175 173.438 61.2374 173.443 61.2575 173.443C61.2777 173.443 61.2975 173.438 61.3153 173.429C63.7671 172.1 64.9669 170.248 66.3023 167.555C66.3893 168.949 66.4293 170.318 66.4223 171.661C66.4128 171.689 66.4128 171.721 66.4223 171.75C66.4476 171.786 66.4604 171.83 66.4588 171.875L67.0535 192.044L57.3821 184.638L56.417 183.884C57.4603 179.7 58.4758 175.55 59.4635 171.436C59.6557 170.661 59.8072 169.877 59.9173 169.087C60 168.3 60 167.505 59.9173 166.718C59.8192 165.556 59.7913 164.389 59.8338 163.224L59.7869 163.192Z" fill="#B0FADA"/>
<path d="M119.068 171.038C119.064 172.513 118.624 173.953 117.804 175.177C116.983 176.401 115.82 177.353 114.46 177.915C113.1 178.476 111.605 178.62 110.163 178.33C108.721 178.039 107.398 177.326 106.36 176.282C105.322 175.237 104.616 173.908 104.331 172.461C104.046 171.015 104.195 169.516 104.76 168.154C105.324 166.793 106.279 165.629 107.502 164.811C108.726 163.993 110.164 163.557 111.634 163.558C112.612 163.56 113.58 163.754 114.483 164.131C115.386 164.508 116.206 165.059 116.897 165.754C117.587 166.448 118.134 167.273 118.507 168.179C118.879 169.086 119.07 170.057 119.068 171.038ZM118.217 171.038C118.222 169.729 117.838 168.448 117.116 167.358C116.393 166.268 115.364 165.417 114.159 164.914C112.954 164.411 111.627 164.277 110.346 164.531C109.066 164.785 107.889 165.414 106.965 166.338C106.041 167.263 105.412 168.442 105.157 169.726C104.902 171.01 105.033 172.34 105.533 173.55C106.033 174.759 106.88 175.792 107.966 176.518C109.052 177.244 110.329 177.631 111.634 177.628C113.378 177.628 115.051 176.934 116.286 175.699C117.52 174.463 118.215 172.787 118.217 171.038Z" fill="#7484A0"/>
<path d="M118.217 171.038C118.214 172.345 117.825 173.622 117.098 174.708C116.371 175.793 115.34 176.638 114.134 177.136C112.928 177.634 111.602 177.762 110.324 177.504C109.046 177.246 107.872 176.614 106.952 175.688C106.032 174.762 105.406 173.583 105.154 172.3C104.902 171.017 105.035 169.688 105.536 168.481C106.038 167.274 106.884 166.243 107.97 165.519C109.055 164.794 110.33 164.409 111.634 164.411C112.501 164.412 113.359 164.584 114.159 164.917C114.959 165.251 115.685 165.739 116.297 166.355C116.908 166.971 117.393 167.701 117.722 168.505C118.052 169.308 118.22 170.169 118.217 171.038ZM106.418 174.459C108.953 177.984 113.632 177.367 116.606 174.767C116.658 174.722 116.693 174.659 116.705 174.59C116.716 174.522 116.703 174.451 116.668 174.391L111.452 165.577C111.423 165.529 111.38 165.49 111.329 165.467C111.277 165.444 111.22 165.436 111.165 165.447C111.127 165.452 111.091 165.465 111.06 165.486C111.028 165.507 111.002 165.535 110.982 165.567C109.33 168.468 107.807 171.312 106.412 174.098C106.379 174.152 106.362 174.215 106.362 174.278C106.362 174.342 106.379 174.404 106.412 174.459H106.418Z" fill="#8C9CB6"/>
<path d="M116.579 174.767C113.606 177.383 108.927 177.984 106.391 174.459C106.358 174.405 106.341 174.342 106.341 174.278C106.341 174.215 106.358 174.152 106.391 174.098C107.782 171.308 109.306 168.465 110.961 165.567C110.981 165.535 111.007 165.507 111.039 165.486C111.07 165.465 111.106 165.452 111.144 165.447C111.199 165.437 111.256 165.444 111.307 165.467C111.359 165.49 111.402 165.529 111.431 165.577L116.647 174.391C116.682 174.451 116.695 174.522 116.684 174.59C116.672 174.659 116.637 174.722 116.584 174.767H116.579Z" fill="#7484A0"/>
<path d="M174.603 165.797L173.21 173.983L170.638 170.552L170.565 168.763L174.603 165.797Z" fill="#3A4465"/>
<path d="M166.084 107.33L168.411 111.316H168.5L167.717 111.635L163.961 113.241L160.002 114.967C160.315 113.664 160.002 112.315 159.042 110.929C158.938 110.782 158.969 110.751 159.125 110.83C161.003 111.787 163.45 112.399 165.109 110.636C165.246 110.532 165.349 110.389 165.405 110.226C165.462 110.064 165.469 109.888 165.427 109.721C165.297 109.098 165.151 108.491 164.994 107.9C165.269 107.776 165.531 107.625 165.777 107.451C165.928 107.346 166.027 107.315 166.084 107.351V107.33Z" fill="#468E6B"/>
<path d="M153.971 114.261C155.643 114.85 157.388 115.202 159.157 115.307L154.983 117.179L153.225 117.875L153.747 116.081C153.752 116.065 153.752 116.047 153.749 116.03C153.745 116.014 153.737 115.998 153.725 115.986C153.714 115.973 153.699 115.964 153.683 115.958C153.666 115.953 153.649 115.952 153.632 115.955L150.163 116.641C150.264 116.366 150.313 116.075 150.309 115.783L153.961 114.282L153.971 114.261Z" fill="#468E6B"/>
<path d="M116.162 61.0141C113.03 62.4494 109.791 63.6386 106.475 64.5709C104.06 65.2508 101.441 65.8524 99.0048 65.7216C95.812 65.5511 92.7198 64.5428 90.0376 62.7977C90.77 62.7911 91.5021 62.8348 92.2285 62.9285C93.4336 63.0802 94.1587 63.1691 94.3934 63.1848C95.7288 63.2755 97.0173 63.3103 98.2589 63.2894C98.3611 63.2901 98.4628 63.3041 98.5614 63.3312C98.6461 63.3444 98.7323 63.3444 98.817 63.3312C100.535 63.3103 102.26 63.2493 103.992 63.1482C103.992 63.1482 104.028 63.1482 104.028 63.1116C104.035 63.0881 104.043 63.0653 104.054 63.0436L105.531 62.9023C106.017 62.849 106.498 62.7598 106.97 62.6356C107.517 62.488 108.076 62.3882 108.64 62.3374C109.184 62.3042 109.725 62.2254 110.257 62.1021L111.092 61.8929C112.75 61.5442 114.435 61.2478 116.146 61.0037L116.162 61.0141Z" fill="#55A07D"/>
<path d="M59.2913 114.025C60.0836 114.643 60.9975 115.085 61.9726 115.323C61.9413 116.567 62.5777 117.336 63.8819 117.64C65.2642 117.959 66.4901 117.718 67.8517 117.566L71.352 118.733C71.2613 118.838 71.197 118.964 71.1642 119.099C71.1541 119.139 71.1556 119.181 71.1686 119.22C71.1815 119.258 71.2053 119.293 71.2372 119.319C74.3984 122.049 77.4692 124.887 80.4496 127.834C82.8784 130.212 85.1721 132.725 87.3198 135.361L89.782 139.022L92.9119 144.828L93.5171 146.031L94.5604 148.217C95.6245 150.54 96.6679 152.848 97.6903 155.142C98.6049 157.189 99.3005 158.95 99.7769 160.425C94.5325 153.995 89.036 147.872 83.2874 142.056C79.0566 137.78 74.5408 133.797 69.7713 130.135L60.9293 123.561L58.1384 121.761L57.3299 121.17L49.7502 114.475C50.3902 114.038 50.9814 113.533 51.5134 112.969C51.7569 112.697 52.2785 112.092 53.0784 111.154C53.1306 111.086 53.1775 111.091 53.214 111.154C54.3825 113.626 56.417 114.582 59.3174 114.02L59.2913 114.025Z" fill="#468E6B"/>
<path d="M154.963 117.2L155.797 118.492C155.297 119.538 154.796 120.546 154.295 121.516C154.182 121.722 154.108 121.947 154.076 122.18C154.066 122.273 154.032 122.361 153.977 122.436C153.865 122.571 153.803 122.742 153.805 122.917C153.805 123.007 153.778 123.095 153.726 123.168C153.664 123.261 153.621 123.367 153.601 123.477C153.483 124.088 153.333 124.692 153.153 125.287C153.091 125.484 153.056 125.688 153.048 125.894C153.048 126.417 152.793 126.819 152.767 127.348C152.75 127.614 152.683 127.875 152.568 128.117C152.525 128.211 152.507 128.316 152.516 128.42C152.551 128.787 152.503 129.157 152.375 129.503C152.272 129.762 152.228 130.04 152.245 130.319C152.204 130.9 152.109 131.476 151.963 132.039C151.864 132.897 151.734 133.708 151.577 134.461C151.421 135.214 151.473 135.926 151.348 136.663C151.16 137.735 151.243 138.755 151.045 139.77C150.883 140.586 150.983 141.418 150.842 142.239C150.676 143.475 150.599 144.721 150.612 145.968C150.612 146.334 150.456 146.695 150.435 147.014C150.304 149.125 150.381 151.243 150.664 153.338C150.842 154.839 150.977 156.372 151.061 157.931C151.134 159.186 151.113 160.446 151.301 161.665C151.478 162.8 151.369 163.967 151.483 165.138C151.81 168.625 152.158 171.809 152.527 174.689C152.652 175.693 152.808 176.75 152.996 177.859C153.08 178.34 153.21 178.753 153.247 179.229C153.279 179.568 153.338 179.904 153.424 180.233C153.514 180.586 153.57 180.947 153.591 181.311L152.313 182.273L145.02 187.635C144.874 187.195 144.822 186.73 144.869 186.269C144.873 186.229 144.866 186.188 144.849 186.151C144.831 186.114 144.804 186.082 144.77 186.06L144.702 186.013C144.674 185.994 144.65 185.968 144.634 185.938C144.618 185.908 144.609 185.875 144.608 185.841V184.491C144.607 184.41 144.577 184.332 144.524 184.271C144.37 184.088 144.284 183.857 144.279 183.618C145.268 182.814 146.197 181.94 147.06 181.002C148.145 179.82 148.426 178.989 148.265 177.623C147.107 167.816 145.583 157.836 146.585 148.024C147.107 142.793 148.301 137.233 149.538 131.846L153.189 117.922L154.947 117.227L154.963 117.2Z" fill="#55A07D"/>
<path d="M142.031 118.21L144.848 118.382L140.106 120.6C140.062 120.623 140.023 120.656 139.992 120.695C139.961 120.735 139.94 120.781 139.929 120.83L138.953 125.396C134.918 128.101 131.061 131.063 127.404 134.262C117.695 142.621 109.131 152.231 101.937 162.842C101.858 162.957 101.78 162.962 101.691 162.842L101.545 162.659C101.431 162.507 101.373 162.528 101.378 162.716L101.571 169.291C101.53 169.23 101.47 169.184 101.401 169.159C101.331 169.135 101.256 169.133 101.185 169.155C101.133 166.916 101.107 164.676 101.107 162.434C101.107 161.853 100.278 161.069 99.9282 160.608L106.595 148.61L108.984 144.713L113.199 138.609L115.969 135.361C118.351 132.798 120.834 130.228 123.418 127.651C123.432 127.628 123.439 127.602 123.439 127.575C123.439 127.548 123.432 127.522 123.418 127.499L128.661 122.415L130.461 120.736L135.755 119.779C135.775 119.775 135.793 119.766 135.808 119.753C135.917 119.653 135.917 119.596 135.808 119.57C137.925 119.342 140.011 118.886 142.031 118.21Z" fill="#468E6B"/>
<path d="M129.652 136.517C128.379 140.004 128.948 142.987 131.358 145.466C132.538 146.621 134.077 147.336 135.719 147.49L135.609 148.991C135.368 149.005 135.126 149.005 134.884 148.991C134.509 148.95 134.269 148.74 133.872 148.735C133.73 148.73 133.589 148.704 133.455 148.657C132.686 148.409 131.949 148.072 131.259 147.652C130.556 147.147 129.917 146.559 129.355 145.9C129.144 145.683 128.968 145.434 128.833 145.163C128.708 144.891 128.572 144.64 128.426 144.368C128.381 144.284 128.359 144.19 128.364 144.096C128.367 144.014 128.354 143.933 128.325 143.856C128.297 143.78 128.253 143.71 128.197 143.651C128.161 143.615 128.134 143.571 128.118 143.523C128.102 143.475 128.096 143.424 128.103 143.374C128.16 142.914 127.904 142.605 127.868 142.145C127.807 141.552 127.842 140.953 127.972 140.371C128.042 140.097 128.089 139.817 128.113 139.535C128.121 139.444 128.158 139.358 128.217 139.289C128.405 139.069 128.327 138.844 128.442 138.572C128.762 137.853 129.163 137.172 129.636 136.543L129.652 136.517Z" fill="#55A07D"/>
<path d="M114.169 151.842C113.93 153.9 114.36 155.98 115.395 157.773C116.028 158.882 116.893 159.84 117.932 160.58C118.97 161.319 120.157 161.824 121.41 162.057C124.821 162.723 127.791 161.691 130.32 158.961C130.286 159.319 130.15 159.661 129.928 159.944C129.344 160.509 128.796 161.058 128.285 161.592C127.917 161.976 127.489 162.297 127.018 162.544C126.543 162.796 126.054 163.018 125.552 163.208C124.933 163.431 124.29 163.582 123.637 163.658C123.421 163.685 123.207 163.725 122.996 163.778C122.681 163.855 122.354 163.864 122.036 163.804C121.738 163.752 121.436 163.71 121.128 163.673C119.823 163.579 118.557 163.191 117.422 162.54C116.287 161.888 115.312 160.988 114.571 159.908C113.484 158.418 113.029 156.559 113.303 154.735C113.486 153.742 113.776 152.772 114.169 151.842Z" fill="#55A07D"/>
<path d="M104.091 166.42C102.982 168.393 102.651 170.711 103.164 172.917C103.676 175.123 104.996 177.055 106.861 178.333C108.726 179.611 111.001 180.142 113.237 179.819C115.473 179.497 117.507 178.346 118.937 176.593C120.413 174.734 121.096 172.364 120.836 170.002C120.94 170.059 121.024 170.147 121.076 170.254C121.129 170.361 121.147 170.481 121.128 170.599C121.121 170.642 121.125 170.686 121.14 170.727C121.155 170.768 121.179 170.805 121.212 170.834L121.279 170.902C121.347 170.973 121.386 171.066 121.389 171.164V174.176C121.389 174.262 121.363 174.346 121.316 174.417C121.065 174.82 121.175 175.144 120.992 175.562C120.516 176.624 119.911 177.624 119.193 178.539C117.45 180.809 114.529 181.907 111.676 182.074C110.848 182.062 110.023 181.982 109.208 181.834C108.246 181.648 107.325 181.294 106.485 180.788C105.358 180.218 104.612 179.25 103.731 178.397C103.407 178.089 103.366 177.697 103.032 177.404C102.966 177.341 102.917 177.261 102.891 177.173C102.86 177.042 102.797 176.92 102.708 176.818C102.667 176.774 102.636 176.721 102.617 176.663C102.599 176.605 102.595 176.543 102.604 176.483C102.622 176.396 102.616 176.306 102.586 176.222C102.557 176.138 102.505 176.064 102.437 176.007C102.397 175.977 102.367 175.935 102.35 175.888C102.333 175.84 102.331 175.789 102.343 175.74C102.366 175.646 102.362 175.547 102.331 175.454C102.301 175.362 102.245 175.28 102.171 175.217C102.104 175.159 102.06 175.08 102.046 174.992L101.931 174.328L102.15 174.438C102.239 174.485 102.291 174.438 102.296 174.354C102.343 173.514 102.28 172.672 102.109 171.849C102.039 171.574 102.073 171.284 102.202 171.033C102.242 170.953 102.263 170.866 102.265 170.777L102.307 169.809C102.308 169.721 102.339 169.636 102.395 169.568C102.513 169.421 102.571 169.234 102.557 169.045C102.554 168.963 102.578 168.882 102.625 168.815C102.717 168.679 102.781 168.526 102.813 168.365C102.913 167.912 103.131 167.494 103.444 167.152C103.507 167.083 103.553 167.001 103.58 166.911C103.667 166.667 103.842 166.464 104.07 166.341L104.091 166.42Z" fill="#55A07D"/>
<path d="M170.581 168.763L170.654 170.552C170.349 170.143 169.977 169.789 169.553 169.505L170.597 168.763H170.581Z" fill="#1E263E"/>
<path d="M169.538 169.506C169.961 169.789 170.334 170.143 170.638 170.552L173.21 173.983C174.249 175.762 174.969 177.709 175.338 179.737L174.139 179.768C174.05 179.77 173.965 179.799 173.893 179.852L173.773 179.935C173.689 179.996 173.585 180.026 173.481 180.019C173.022 179.986 172.561 180.037 172.12 180.171C171.713 180.291 171.301 180.249 170.889 180.338C169.043 180.689 167.221 181.154 165.432 181.729C162.689 182.65 160.026 183.798 157.472 185.161C155.43 186.259 153.344 187.366 151.212 188.482C151.451 186.399 151.815 184.333 152.302 182.294L153.58 181.332L169.538 169.506Z" fill="#684D78"/>
<path d="M40.5482 171.729L56.396 183.858L57.382 184.637C57.1486 185.014 56.7987 185.305 56.3856 185.464C54.6468 184.439 52.9601 183.45 51.3256 182.498C49.6635 181.524 47.9177 180.701 46.109 180.04C44.9122 179.623 43.6931 179.274 42.4574 178.994C41.0437 178.669 39.8492 178.424 38.8737 178.267C38.3409 178.199 37.8164 178.076 37.3087 177.901C37.2825 177.782 37.2825 177.658 37.3087 177.54C37.8133 176.165 38.4787 174.855 39.291 173.638C39.6979 173.036 40.1152 172.408 40.543 171.765L40.5482 171.729Z" fill="#684D78"/>
<path d="M37.2982 177.864C37.806 178.04 38.3304 178.162 38.8632 178.23C39.8387 178.387 41.0333 178.633 42.4469 178.957C43.6826 179.237 44.9017 179.587 46.0985 180.003C47.9072 180.665 49.653 181.487 51.3151 182.462C52.9635 183.414 54.6502 184.402 56.3751 185.427C55.7387 185.877 55.1492 186.269 54.6171 186.594C54.0851 186.918 53.8138 187.996 53.6208 188.545C53.3429 189.348 52.8593 190.065 52.2184 190.622C51.5776 191.179 50.8019 191.558 49.9692 191.72C46.2237 192.609 41.8575 191.72 39.0666 188.974C36.0567 186.008 35.9367 181.991 37.1574 178.068C37.1735 178.023 37.1983 177.982 37.2304 177.948L37.3347 177.854L37.2982 177.864Z" fill="#8E81A8"/>
<path d="M175.339 179.757C176.003 183.473 175.633 187.301 174.269 190.82C173.412 193.283 171.653 195.328 169.35 196.542C166.299 198.236 162.864 199.115 159.376 199.095C160.158 197.852 160.84 196.549 161.416 195.198C161.874 194.125 162.111 192.97 162.115 191.803C162.115 191.622 162.104 191.523 162.083 191.505C161.992 191.436 161.878 191.402 161.764 191.411C161.65 191.419 161.542 191.47 161.463 191.552C160.941 192.075 160.451 192.551 159.898 193.022C158.625 193.959 157.27 194.778 155.85 195.47C155.824 195.351 155.824 195.228 155.85 195.109C155.855 195.09 155.856 195.069 155.853 195.049C155.85 195.029 155.842 195.011 155.83 194.994C155.819 194.978 155.804 194.964 155.786 194.954C155.769 194.944 155.75 194.938 155.73 194.936C154.942 194.785 153.998 194.811 153.293 194.46C152.6 194.061 152.078 193.418 151.828 192.656C151.242 191.344 151.016 189.9 151.17 188.471C153.309 187.359 155.396 186.252 157.43 185.15C159.986 183.8 162.648 182.664 165.391 181.755C167.179 181.18 169.002 180.715 170.847 180.364C171.259 180.275 171.671 180.317 172.078 180.197C172.519 180.063 172.981 180.012 173.44 180.045C173.544 180.052 173.647 180.022 173.732 179.961L173.852 179.878C173.923 179.825 174.009 179.796 174.097 179.794L175.297 179.763L175.339 179.757Z" fill="#8E81A8"/>
<path d="M152.292 182.278C151.805 184.317 151.441 186.383 151.202 188.466C151.047 189.895 151.274 191.339 151.859 192.651C152.109 193.413 152.631 194.055 153.325 194.455C154.029 194.806 154.973 194.779 155.761 194.931C155.781 194.933 155.8 194.939 155.818 194.949C155.835 194.959 155.85 194.972 155.862 194.989C155.873 195.005 155.881 195.024 155.884 195.044C155.887 195.064 155.886 195.084 155.881 195.104C155.855 195.223 155.855 195.346 155.881 195.465C155.806 195.933 155.828 196.411 155.947 196.871C156.065 197.33 156.277 197.759 156.569 198.132C153.089 199.259 149.459 199.853 145.802 199.895C144.123 199.895 142.61 199.895 141.269 199.79L141.723 190.093L145.041 187.629L152.302 182.273L152.292 182.278Z" fill="#1E263E"/>
<path d="M141.713 190.098L141.259 199.806L140.278 214.938C140.272 215.021 140.243 215.1 140.195 215.168C140.178 215.187 140.166 215.209 140.159 215.232C140.152 215.256 140.15 215.281 140.152 215.306C140.155 215.33 140.163 215.354 140.176 215.375C140.189 215.397 140.206 215.415 140.226 215.43C138.671 215.234 137.682 215.093 137.258 215.006C135.241 214.563 133.176 214.377 131.113 214.451C128.195 214.57 125.285 214.842 122.396 215.267C121.312 215.439 120.239 215.673 119.182 215.968C118.139 216.258 117.082 216.519 116.011 216.753C115.794 214.515 115.309 212.311 114.566 210.189L141.692 190.109L141.713 190.098Z" fill="#684D78"/>
<path d="M159.376 199.095C158.351 199.133 157.349 198.793 156.559 198.138C156.267 197.765 156.055 197.335 155.936 196.876C155.818 196.417 155.795 195.938 155.87 195.47C157.291 194.779 158.646 193.959 159.918 193.022C160.44 192.551 160.962 192.06 161.483 191.552C161.563 191.47 161.67 191.419 161.785 191.411C161.899 191.402 162.013 191.436 162.104 191.505C162.104 191.505 162.135 191.62 162.135 191.803C162.132 192.971 161.894 194.125 161.436 195.198C160.861 196.549 160.178 197.852 159.397 199.095H159.376Z" fill="#684D78"/>
<path d="M69.2026 193.697L95.807 214.07V218.903C87.9057 215.154 81.8788 212.424 77.7265 210.712C76.9909 210.414 75.5147 209.849 73.3081 209.033L69.2131 193.697H69.2026Z" fill="#684D78"/>
<path d="M73.2976 209.033C75.5042 209.849 76.9805 210.414 77.716 210.712C81.8893 212.42 87.9248 215.151 95.8227 218.903C95.8854 219.721 95.8749 220.544 95.7914 221.361C95.4471 224.238 92.7919 224.96 90.3662 225.205C87.7857 225.47 85.2105 225.636 82.6405 225.702C81.8824 224.826 80.9277 224.143 79.8548 223.71C78.9605 223.354 77.9927 223.224 77.0367 223.332C76.0806 223.44 75.1656 223.781 74.3722 224.327C74.3158 224.363 74.2487 224.378 74.1823 224.371C74.1158 224.363 74.054 224.333 74.0071 224.285C73.0238 223.425 71.7409 222.991 70.439 223.077C72.0142 221.311 73.7618 219.708 75.6555 218.291C75.6943 218.262 75.7235 218.222 75.7393 218.176C75.7551 218.131 75.7568 218.081 75.7442 218.034L73.3185 209.033H73.2976Z" fill="#8E81A8"/>
<path d="M140.226 215.419C140.149 217.511 140.002 219.604 139.783 221.696C139.553 223.887 138.327 225.164 136.131 225.509C134.086 225.83 132.38 226.03 131.014 226.11C129.966 224.813 128.482 223.945 126.84 223.668C124.378 223.348 121.875 223.657 119.563 224.567C119.421 224.623 119.268 224.644 119.117 224.628C118.966 224.613 118.82 224.561 118.692 224.478C117.644 223.875 116.459 223.55 115.251 223.534C114.042 223.517 112.85 223.81 111.785 224.384C112.052 223.668 112.462 223.015 112.99 222.465C113.517 221.922 114.012 221.35 114.472 220.749C115.373 219.6 115.918 218.21 116.037 216.753C117.101 216.519 118.158 216.258 119.209 215.968C120.265 215.673 121.338 215.439 122.422 215.267C125.303 214.843 128.204 214.571 131.113 214.451C133.175 214.366 135.239 214.542 137.258 214.975C137.682 215.062 138.671 215.203 140.226 215.398V215.419Z" fill="#8E81A8"/>
<path d="M70.4234 223.077C71.7253 222.991 73.0082 223.425 73.9915 224.285C74.0384 224.333 74.1002 224.363 74.1667 224.371C74.2331 224.378 74.3002 224.363 74.3566 224.327C75.15 223.781 76.065 223.44 77.0211 223.332C77.9771 223.224 78.9449 223.354 79.8392 223.71C80.9121 224.143 81.8668 224.826 82.6249 225.702C79.5575 225.824 76.5058 225.824 73.4698 225.702C72.8358 225.68 72.2069 225.58 71.5971 225.404C70.992 225.216 70.3242 224.881 70.2147 224.159C70.1658 223.797 70.2393 223.429 70.4234 223.113V223.077Z" fill="#ECC1B4"/>
<path d="M130.987 226.1C125.351 226.571 119.692 226.709 114.039 226.513C113.372 226.512 112.718 226.331 112.145 225.99C112.007 225.913 111.886 225.808 111.791 225.681C111.696 225.555 111.629 225.409 111.594 225.255C111.559 225.1 111.557 224.94 111.588 224.784C111.62 224.629 111.683 224.482 111.775 224.353C112.839 223.779 114.032 223.486 115.24 223.502C116.449 223.519 117.633 223.844 118.682 224.447C118.809 224.53 118.955 224.581 119.106 224.597C119.258 224.612 119.411 224.591 119.553 224.536C121.864 223.626 124.367 223.316 126.83 223.636C128.471 223.913 129.955 224.782 131.003 226.079L130.987 226.1Z" fill="#ECC1B4"/>
</svg>
