<svg width="156" height="31" viewBox="0 0 156 51" fill="none" xmlns="http://www.w3.org/2000/svg">
<path d="M35.0513 27.8625C36.1425 29.595 35.9625 32.865 35.8988 35.0175C35.8538 36.5887 36.45 36.6675 37.5263 37.4475C37.8263 37.6625 37.8613 37.9137 37.6313 38.2012C35.6663 40.6575 33.405 37.665 33.3938 35.7225C33.3788 33.7 33.38 31.68 33.3975 29.6625C33.3986 29.5698 33.3779 29.4782 33.3369 29.3951C33.2959 29.3119 33.2359 29.2397 33.1617 29.1841C33.0875 29.1286 33.0012 29.0913 32.9099 29.0754C32.8186 29.0595 32.7249 29.0653 32.6363 29.0925L30.5288 29.7412C30.4534 29.7639 30.3851 29.8062 30.3306 29.8641C30.276 29.9219 30.2371 29.9933 30.2175 30.0712C29.5675 32.6112 28.9663 35.0875 28.4138 37.5C28.005 39.2925 25.695 39.3937 25.5525 37.5412C25.3688 35.205 25.3538 32.5987 25.8413 30.2737C26.3963 27.6237 27.1025 24.85 27.96 21.9525C28.6375 19.6675 29.6275 17.765 30.93 16.245C31.3275 15.78 31.395 15.1312 31.6575 14.5687C31.6985 14.4812 31.7636 14.4073 31.8452 14.3556C31.9268 14.304 32.0215 14.2767 32.1181 14.2771C32.2147 14.2775 32.3091 14.3055 32.3903 14.3579C32.4715 14.4102 32.536 14.4847 32.5763 14.5725L32.7 14.8462C32.7625 14.9812 32.8638 15.0262 33.0038 14.9812C34.4388 14.5387 35.7438 14.435 36.9188 14.67C39.4125 15.1725 39.4575 20.145 39.27 22.0462C39.0263 24.4875 37.14 26.3475 35.1188 27.5775C34.9988 27.65 34.9763 27.745 35.0513 27.8625ZM31.4588 26.7375C33.24 26.04 36.495 24.1575 36.78 22.0875C36.9975 20.48 36.9213 18.865 36.5513 17.2425C36.523 17.1165 36.455 17.0027 36.3572 16.9178C36.2595 16.8328 36.137 16.781 36.0075 16.77C35.1125 16.695 34.2525 16.8112 33.4275 17.1187C33.2944 17.1686 33.1768 17.2532 33.0865 17.3638C32.9963 17.4745 32.9367 17.6072 32.9138 17.7487C32.4438 20.7862 31.8575 23.6925 31.155 26.4675C31.08 26.755 31.1813 26.845 31.4588 26.7375Z" fill="white"/>
<path d="M131.085 23.1638C132.581 20.7375 135.083 18.2513 138.079 18.8363C139.416 19.0988 140.288 20.0875 140.693 21.8025C141.24 24.1375 141.373 26.53 141.09 28.98C140.944 30.2475 139.41 31.7963 138.364 30.2025C138.279 30.0725 138.245 29.9313 138.263 29.7788C138.553 27.4113 138.561 25.0988 138.289 22.8413C138.231 22.3663 138.085 21.9063 137.85 21.4613C137.816 21.3963 137.768 21.3391 137.71 21.2933C137.652 21.2475 137.585 21.214 137.513 21.195C135.555 20.6925 133.436 23.5613 132.589 25.155C131.499 27.2075 130.426 29.3038 129.371 31.4438C129.069 32.0588 128.583 32.29 127.913 32.1375C127.44 32.0275 127.158 31.5588 127.065 30.7312C127.048 30.5707 127.066 30.4082 127.118 30.255C127.495 29.1325 127.859 27.97 128.209 26.7675C128.824 24.6413 128.73 22.4138 129.015 20.2313C129.098 19.5963 129.44 19.32 130.043 19.4025C130.175 19.4225 130.28 19.4875 130.358 19.5975C131.044 20.5725 130.838 21.9638 130.875 23.1075C130.883 23.3575 130.953 23.3763 131.085 23.1638Z" fill="white"/>
<path d="M99.0449 24.8776C99.0483 24.7827 99.029 24.6883 98.9886 24.6023C98.9481 24.5164 98.8877 24.4412 98.8123 24.3829C98.7369 24.3247 98.6486 24.2852 98.5547 24.2675C98.4609 24.2499 98.3641 24.2546 98.2724 24.2814C94.1199 25.5139 92.3774 28.2539 93.0449 32.5014C93.2849 34.0276 95.4524 33.9601 96.4649 33.3939C97.1974 32.9864 97.9199 32.3101 98.6324 31.3651C100.485 28.9051 101.865 26.6926 101.681 23.5764C101.629 22.6689 101.21 22.0001 100.425 21.5701C100.297 21.5001 100.167 21.4976 100.035 21.5626C99.8524 21.6551 99.7461 21.6001 99.7161 21.3976C99.4424 19.6839 101.269 19.5639 102.277 20.2314C103.275 20.8914 103.805 21.8539 103.867 23.1189C103.946 24.6939 103.927 26.2351 103.376 27.7389C102.639 29.7514 101.482 31.7051 99.9074 33.6001C98.1399 35.7276 96.0349 36.5064 93.5924 35.9364C90.4911 35.2089 90.4911 32.1564 90.7574 29.4564C90.9174 27.8389 91.5599 26.4401 92.6849 25.2601C94.3649 23.5014 97.2449 21.8401 99.6336 22.7289C99.7949 22.7884 99.9345 22.8954 100.034 23.0359C100.134 23.1764 100.189 23.3438 100.192 23.5164C100.21 24.7564 99.9561 25.7614 99.4311 26.5314C98.9461 27.2439 98.7711 27.1751 98.9061 26.3251C98.9811 25.8501 99.0274 25.3676 99.0449 24.8776Z" fill="white"/>
<path d="M115.463 31.5375C114.079 32.565 112.421 32.8275 110.633 32.58C109.103 32.3675 108.346 31.44 108.364 29.7975C108.394 26.8275 109.991 24.2887 112.253 22.275C113.115 21.505 114.075 21.1137 115.133 21.1012C116.419 21.0862 117.255 22.365 116.074 23.3025C115.969 23.385 115.854 23.4062 115.729 23.3662C115.671 23.3462 115.625 23.31 115.59 23.2575C115.54 23.1802 115.473 23.1143 115.396 23.0637C115.318 23.0131 115.23 22.9789 115.137 22.9632C115.044 22.9474 114.949 22.9504 114.856 22.972C114.763 22.9936 114.675 23.0333 114.596 23.0887C112.714 24.4275 110.745 27.2925 110.91 29.8425C110.92 29.975 110.991 30.05 111.124 30.0675C112.186 30.205 113.096 30.025 113.854 29.5275C115.706 28.3162 118.429 25.5262 118.14 23.0662C118.128 22.9512 118.078 22.855 117.99 22.7775C117.835 22.6425 117.668 22.5175 117.488 22.4025C116.839 21.9825 116.891 21.21 117.619 20.8912C118.586 20.4712 119.391 20.64 120.034 21.3975C120.806 22.3162 120.563 23.9137 120.308 25.0162C119.73 27.5287 117.533 30 115.463 31.5375Z" fill="white"/>
<path d="M78.555 33.9C79.1325 34.0375 79.6163 33.9987 80.0063 33.7837C81.2488 33.1037 82.5138 32.2537 83.8013 31.2337C84.015 31.0687 84.3225 31.0462 84.5625 31.1587C84.6197 31.1853 84.6701 31.2242 84.7103 31.2727C84.7505 31.3212 84.7794 31.378 84.7948 31.4391C84.8103 31.5002 84.8119 31.5639 84.7996 31.6257C84.7873 31.6875 84.7614 31.7457 84.7238 31.7962C83.8713 32.9337 82.9763 34.0262 82.0388 35.0737C81.0738 36.1487 79.8475 36.5962 78.36 36.4162C77.445 36.3062 76.745 35.9137 76.26 35.2387C75.94 34.7937 75.7488 34.0837 75.6863 33.1087C75.4313 29.1837 76.975 26.0762 80.3175 23.7862C81.7388 22.8112 82.5825 22.9312 84.0938 23.1937C84.2663 23.2237 84.3975 23.3062 84.4875 23.4412C84.5313 23.5065 84.5583 23.5814 84.5664 23.6596C84.5744 23.7378 84.5632 23.8168 84.5336 23.8899C84.5041 23.963 84.4571 24.028 84.3968 24.0792C84.3365 24.1304 84.2647 24.1662 84.1875 24.1837C83.695 24.2962 83.2238 24.4087 82.7738 24.5212C81.5025 24.8437 79.9463 26.8312 79.275 27.84C78.2963 29.3025 78.0863 30.975 78.1125 32.7C78.1175 33.035 78.1725 33.3525 78.2775 33.6525C78.325 33.785 78.4175 33.8675 78.555 33.9Z" fill="white"/>
<path d="M53.3625 28.2151C53.7525 27.6151 54.165 27.0439 54.6 26.5014C55.3238 25.5976 56.7375 25.6501 57.03 26.8689C57.1425 27.3339 57.215 27.8026 57.2475 28.2751C57.3675 30.1051 57.405 31.9526 57.36 33.8176C57.359 33.8599 57.3665 33.902 57.3823 33.9412C57.398 33.9804 57.4216 34.0159 57.4515 34.0455C57.4815 34.0751 57.5171 34.0981 57.5562 34.1131C57.5953 34.1281 57.637 34.1347 57.6788 34.1326C58.2363 34.1126 58.7575 33.9789 59.2425 33.7314C59.3275 33.6889 59.4163 33.6751 59.5088 33.6901C59.5788 33.7001 59.645 33.7201 59.7075 33.7501C59.7619 33.7785 59.8088 33.8192 59.8446 33.869C59.8804 33.9187 59.904 33.976 59.9135 34.0363C59.923 34.0966 59.9181 34.1581 59.8993 34.2159C59.8804 34.2737 59.8481 34.3261 59.805 34.3689C59.3225 34.8464 58.8475 35.3101 58.38 35.7601C57.1725 36.9226 55.0613 36.5664 54.9713 34.5526C54.9038 33.0926 54.9113 31.6126 54.9938 30.1126C55.0088 29.8401 54.9425 29.8176 54.795 30.0451C53.35 32.2901 51.9475 34.5364 50.5875 36.7839C49.7288 38.1976 48.3675 40.3126 46.5075 40.4139C43.995 40.5564 42.39 38.8651 42.2363 36.4539C41.94 31.8751 42.9375 27.9226 46.5713 24.8476C47.6013 23.9751 48.9138 23.5526 50.5088 23.5801C52.0388 23.6064 53.28 23.9251 53.2763 25.8151C53.2738 26.6076 53.2438 27.3876 53.1863 28.1551C53.1663 28.4076 53.225 28.4276 53.3625 28.2151ZM44.4188 36.5889C44.6063 37.8714 46.1625 38.8464 47.1225 37.6426C48.2175 36.2701 49.7775 33.9164 51.8025 30.5814C51.8875 30.4389 51.92 30.2851 51.9 30.1201C51.725 28.7526 51.65 27.3351 51.675 25.8676C51.6775 25.6401 51.5663 25.5089 51.3413 25.4739C49.2263 25.1364 47.8238 25.9089 46.5413 27.5439C44.5988 30.0164 43.8913 33.0314 44.4188 36.5889Z" fill="white"/>
<path d="M69.7687 26.3062C67.7087 29.5237 66.785 32.84 66.9975 36.255C67.0075 36.4275 67.0862 36.5562 67.2337 36.6412C68.2837 37.2437 69.2625 37.2 70.17 36.51C70.2164 36.474 70.2709 36.4495 70.3288 36.4384C70.3868 36.4273 70.4467 36.43 70.5037 36.4462C70.6612 36.4937 70.7675 36.5737 70.8225 36.6862C70.9825 37.0062 70.9287 37.2875 70.6612 37.53C69.345 38.7187 67.9425 39.6337 66.1162 38.8762C65.1687 38.4837 64.6387 37.68 64.5262 36.465C64.2912 33.8825 64.8025 31.215 66.06 28.4625C66.7087 27.0412 67.5 25.4812 68.6887 24.45C69.5212 23.7262 71.52 23.505 71.6625 25.0087C71.745 25.8375 71.625 26.8612 71.175 27.5775C71.1345 27.6414 71.0779 27.6936 71.0109 27.7288C70.9439 27.764 70.8688 27.7809 70.7932 27.7778C70.7175 27.7748 70.6441 27.7519 70.5801 27.7115C70.5161 27.671 70.4639 27.6145 70.4287 27.5475C70.2487 27.205 70.1412 26.82 70.1062 26.3925C70.0762 26.0275 69.9637 25.9987 69.7687 26.3062Z" fill="white"/>
</svg>
